<svg width="13" height="14" viewBox="0 0 13 14" fill="none" xmlns="http://www.w3.org/2000/svg">
<path fill-rule="evenodd" clip-rule="evenodd" d="M4.00002 0.5C3.03261 0.5 2.13374 0.656119 1.45811 0.926446C1.12168 1.06106 0.815898 1.2338 0.585946 1.45106C0.355009 1.66926 0.16735 1.96688 0.166687 2.33243V2.33333V10.3338C0.167018 10.6995 0.354448 10.9974 0.585446 11.2158C0.815385 11.4332 1.12121 11.6059 1.45767 11.7405C2.13334 12.0107 3.03238 12.1667 4.00002 12.1667C4.75559 12.1667 5.4649 12.0706 6.06017 11.9006C6.19191 12.104 6.3469 12.2966 6.52513 12.4749C7.89173 13.8415 10.1083 13.8415 11.4749 12.4749C12.8415 11.1083 12.8415 8.8917 11.4749 7.52511C10.4903 6.54054 9.06458 6.26531 7.83335 6.69941V5.03728C7.83379 5.02494 7.834 5.01251 7.834 5C7.834 4.99137 7.83379 4.98279 7.83335 4.97426V2.33333C7.83335 2.32578 7.83319 2.31827 7.83285 2.3108L7.83211 2.29785C7.82063 1.94811 7.63798 1.66229 7.41458 1.45098C7.18466 1.23349 6.87874 1.06073 6.54227 0.926165C5.86653 0.655926 4.96734 0.5 4.00002 0.5ZM6.76597 11.1235C6.76523 11.1214 6.76448 11.1194 6.76371 11.1174C6.75293 11.0892 6.73988 11.0626 6.72484 11.0376C6.30471 10.1157 6.47384 8.99061 7.23224 8.23222C7.3417 8.12275 7.4588 8.02557 7.58183 7.94066C7.60193 7.92912 7.62115 7.91623 7.63937 7.90211C8.60824 7.27251 9.91813 7.38255 10.7678 8.23222C11.7439 9.20829 11.7439 10.7917 10.7678 11.7678C9.79172 12.7438 8.20831 12.7438 7.23224 11.7678C7.03827 11.5738 6.88285 11.3559 6.76597 11.1235ZM5.63899 10.9784C5.17513 11.0952 4.61446 11.1667 4.00002 11.1667C3.127 11.1667 2.3597 11.0243 1.82904 10.812C1.56233 10.7053 1.37999 10.5908 1.27247 10.4891C1.16815 10.3905 1.16671 10.3376 1.16669 10.3331V8.94335C1.26019 8.99033 1.3576 9.03377 1.45771 9.07382C2.13332 9.34408 3.03237 9.5 4 9.5C4.55219 9.5 5.08157 9.44902 5.55974 9.35516C5.45942 9.89323 5.48584 10.4503 5.63899 10.9784ZM1.16669 7.64093C1.16712 7.64945 1.16734 7.65803 1.16734 7.66667L1.16734 7.66672C1.16733 7.66985 1.16723 7.72265 1.27284 7.82256C1.38023 7.92416 1.56246 8.03868 1.82913 8.14535C2.35969 8.35759 3.12697 8.5 4 8.5C4.77862 8.5 5.47317 8.38621 5.99097 8.21077C6.13661 7.9662 6.31467 7.73557 6.52513 7.52511C6.62366 7.42657 6.72662 7.33514 6.83335 7.25082V6.27731C6.74022 6.32406 6.64321 6.36729 6.54352 6.40716C5.86783 6.67742 4.96862 6.83333 4.00067 6.83333C3.03272 6.83333 2.13351 6.67742 1.45782 6.40716C1.35766 6.3671 1.26022 6.32365 1.16669 6.27665V7.64093ZM1.16669 4.97426C1.16712 4.98279 1.16734 4.99137 1.16734 5L1.16734 5.00006C1.16733 5.00318 1.16723 5.05598 1.27284 5.15588C1.38023 5.25748 1.56248 5.372 1.82919 5.47867C2.35983 5.69092 3.12729 5.83333 4.00067 5.83333C4.87405 5.83333 5.64151 5.69092 6.17215 5.47867C6.43886 5.372 6.62111 5.25748 6.72851 5.15588C6.81463 5.07441 6.83045 5.02427 6.83335 5.00684V3.61031C6.74002 3.65719 6.6428 3.70053 6.54287 3.74049C5.86718 4.01075 4.96797 4.16667 4.00002 4.16667C3.03207 4.16667 2.13286 4.01075 1.45717 3.74049C1.35724 3.70053 1.26002 3.65719 1.16669 3.61031V4.97426ZM6.83269 2.33288L6.83273 2.34001C6.8299 2.35728 6.81425 2.40749 6.72786 2.48922C6.62046 2.59081 6.43821 2.70533 6.1715 2.81201C5.64086 3.02425 4.8734 3.16667 4.00002 3.16667C3.12664 3.16667 2.35918 3.02425 1.82854 2.81201C1.56183 2.70533 1.37958 2.59081 1.27218 2.48922C1.16969 2.39226 1.16677 2.33967 1.16669 2.3338C1.16678 2.32801 1.16977 2.27521 1.27272 2.17794C1.38039 2.0762 1.56287 1.96161 1.82959 1.85489C2.3603 1.64255 3.12743 1.5 4.00002 1.5C4.8727 1.5 5.64018 1.64241 6.17094 1.85467C6.43772 1.96136 6.62001 2.07588 6.7274 2.17746C6.83289 2.27725 6.8327 2.32987 6.83269 2.33282V2.33288Z" fill="#6C89A9"/>
</svg>
