<svg width="16" height="16" viewBox="0 0 16 16" fill="none" xmlns="http://www.w3.org/2000/svg">
<path fill-rule="evenodd" clip-rule="evenodd" d="M1.8125 7.46824C1.8125 4.42554 4.5432 1.89499 8 1.89499C11.4567 1.89499 14.1875 4.42621 14.1875 7.46899L14.1876 7.47784C14.1818 10.5164 11.4532 13.0423 8.00008 13.0423C7.57464 13.0423 7.15955 13.0022 6.75636 12.9279C6.62526 12.8893 6.47983 12.898 6.34773 12.9635L4.51206 13.8736L4.51191 13.6662V13.666L4.51191 13.665C4.51157 13.1874 4.51126 12.749 4.51167 12.3823C4.51232 12.3526 4.51061 12.323 4.50662 12.2937C4.49907 12.2377 4.48329 12.1843 4.46052 12.1348C4.42264 12.0521 4.36424 11.9776 4.28689 11.9196C4.27858 11.9134 4.27009 11.9073 4.26143 11.9015C2.76337 10.8749 1.8125 9.26945 1.8125 7.46826V7.46824ZM8 0.769989C11.9675 0.769989 15.3062 3.69773 15.3125 7.45831L15.3126 7.46826C15.3126 11.234 11.9714 14.1673 8.00008 14.1673C7.54743 14.1673 7.10568 14.1284 6.67663 14.0561L4.22461 15.2717C4.14337 15.3173 4.04969 15.3432 3.94993 15.3432C3.63927 15.3432 3.38743 15.0914 3.38743 14.7807C3.38743 14.3985 3.38717 14.0232 3.38691 13.6689C3.38665 13.3049 3.38641 12.9631 3.38649 12.6586C1.75634 11.4427 0.6875 9.58503 0.6875 7.46826V7.46824C0.6875 3.70243 4.0288 0.769989 8 0.769989ZM5.82507 5C5.82507 4.68934 6.07691 4.4375 6.38757 4.4375H9.61257C9.92323 4.4375 10.1751 4.68934 10.1751 5C10.1751 5.31066 9.92323 5.5625 9.61257 5.5625H6.38757C6.07691 5.5625 5.82507 5.31066 5.82507 5ZM5 6.875C4.68934 6.875 4.4375 7.12684 4.4375 7.4375C4.4375 7.74816 4.68934 8 5 8H11C11.3107 8 11.5625 7.74816 11.5625 7.4375C11.5625 7.12684 11.3107 6.875 11 6.875H5ZM6.38757 9.3125C6.07691 9.3125 5.82507 9.56434 5.82507 9.875C5.82507 10.1857 6.07691 10.4375 6.38757 10.4375H9.61257C9.92323 10.4375 10.1751 10.1857 10.1751 9.875C10.1751 9.56434 9.92323 9.3125 9.61257 9.3125H6.38757Z" fill="#6C89A9"/>
</svg>
