<svg width="14" height="14" viewBox="0 0 14 14" fill="none" xmlns="http://www.w3.org/2000/svg">
<path fill-rule="evenodd" clip-rule="evenodd" d="M4.33333 1.83333C4.24148 1.83333 4.16667 1.90814 4.16667 2V3.33333V7.33333C4.16667 8.52986 5.13681 9.5 6.33333 9.5H7.66667C8.86319 9.5 9.83333 8.52986 9.83333 7.33333V3.33333V2C9.83333 1.90814 9.75852 1.83333 9.66667 1.83333H4.33333ZM3.20592 7.83333C3.44567 9.34459 4.75466 10.5 6.33333 10.5H6.5V12.1667H5C4.72386 12.1667 4.5 12.3905 4.5 12.6667C4.5 12.9428 4.72386 13.1667 5 13.1667H9C9.27614 13.1667 9.5 12.9428 9.5 12.6667C9.5 12.3905 9.27614 12.1667 9 12.1667H7.5V10.5H7.66667C9.24534 10.5 10.5543 9.34459 10.7941 7.83333H11C12.3808 7.83333 13.5 6.71414 13.5 5.33333V4C13.5 3.35586 12.9775 2.83333 12.3333 2.83333H10.8333V2C10.8333 1.35586 10.3108 0.833332 9.66667 0.833332H4.33333C3.68919 0.833332 3.16667 1.35586 3.16667 2V2.83333H1.66667C1.02252 2.83333 0.5 3.35586 0.5 4V5.33333C0.5 6.71414 1.61919 7.83333 3 7.83333H3.20592ZM3.16667 6.83333V3.83333H1.66667C1.57481 3.83333 1.5 3.90814 1.5 4V5.33333C1.5 6.16186 2.17148 6.83333 3 6.83333H3.16667ZM12.3333 3.83333H10.8333V6.83333H11C11.8285 6.83333 12.5 6.16186 12.5 5.33333V4C12.5 3.90814 12.4252 3.83333 12.3333 3.83333Z" fill="#6C89A9"/>
</svg>
