<svg width="20" height="16" viewBox="0 0 20 16" fill="none" xmlns="http://www.w3.org/2000/svg">
<path fill-rule="evenodd" clip-rule="evenodd" d="M3.99609 0.246094C1.92503 0.246094 0.246094 1.92503 0.246094 3.9961V12.0019C0.246094 14.073 1.92502 15.7519 3.99609 15.7519H16.0036C18.0747 15.7519 19.7536 14.073 19.7536 12.0019V3.99609C19.7536 1.92503 18.0747 0.246094 16.0036 0.246094H3.99609ZM1.74609 3.9961C1.74609 2.75345 2.75345 1.74609 3.99609 1.74609H16.0036C17.2462 1.74609 18.2536 2.75345 18.2536 3.99609V12.0019C18.2536 13.2446 17.2462 14.2519 16.0036 14.2519H3.99609C2.75345 14.2519 1.74609 13.2446 1.74609 12.0019V3.9961ZM5.89151 5.10967C5.53892 4.89229 5.07687 5.0019 4.85949 5.35449C4.64211 5.70708 4.75172 6.16913 5.1043 6.38651L8.03099 8.1909L8.4246 7.55248L8.03099 8.1909C9.23804 8.93507 10.7615 8.93507 11.9686 8.1909L11.575 7.55248L11.9686 8.1909L14.8953 6.38651C15.2478 6.16913 15.3575 5.70708 15.1401 5.35449C14.9227 5.0019 14.4606 4.89229 14.1081 5.10967L11.1814 6.91406C10.457 7.36069 9.54261 7.36069 8.8182 6.91406L5.89151 5.10967Z" fill="white"/>
</svg>
