<svg width="14" height="14" viewBox="0 0 14 14" fill="none" xmlns="http://www.w3.org/2000/svg">
<path fill-rule="evenodd" clip-rule="evenodd" d="M9.15603 1.5753C7.77445 1.027 6.22577 1.02698 4.84418 1.57526L5.44552 2.7741C6.44708 2.40641 7.55313 2.40644 8.55468 2.77418L9.15603 1.5753ZM10.0502 2.02302L9.44897 3.22168C9.70888 3.39052 9.9552 3.58891 10.1831 3.81686C10.4096 4.04331 10.6081 4.28983 10.7778 4.5515L11.9761 3.95039C11.7397 3.56464 11.456 3.20264 11.1267 2.87337C10.795 2.54163 10.4332 2.25818 10.0502 2.02302ZM11.2249 8.55407C11.6005 7.53363 11.5875 6.43226 11.225 5.44593L12.4236 4.8447C12.9633 6.20373 12.9841 7.745 12.4235 9.15526L11.2249 8.55407ZM10.7778 9.44852C10.43 9.98529 9.97505 10.4362 9.44856 10.7775L10.0496 11.9758C10.8262 11.4998 11.4899 10.8433 11.9761 10.0496L10.7778 9.44852ZM2.8734 2.87337C3.20517 2.5416 3.56695 2.25813 3.94999 2.02296L4.55121 3.22155C4.29122 3.39041 4.04484 3.58885 3.81683 3.81686C3.5904 4.04329 3.39189 4.28978 3.22225 4.55143L2.02397 3.95037C2.2604 3.56463 2.54414 3.20263 2.8734 2.87337ZM1.57651 4.84468C1.03677 6.20372 1.01604 7.745 1.57663 9.15528L2.77507 8.55413C2.39944 7.53364 2.41242 6.43222 2.77502 5.44584L1.57651 4.84468ZM2.024 10.0496L3.22225 9.44858C3.57006 9.98539 4.02506 10.4364 4.55161 10.7776L3.95057 11.9759C3.174 11.4999 2.51019 10.8434 2.024 10.0496ZM5.44591 11.2251L4.84474 12.4236C5.51808 12.6914 6.24724 12.836 7.00005 12.836C7.7529 12.836 8.48211 12.6914 9.15548 12.4236L8.55428 11.225C8.06534 11.405 7.54056 11.5017 6.99999 11.5017C6.45949 11.5017 5.93479 11.405 5.44591 11.2251ZM11.8338 2.16626C9.16419 -0.503337 4.83591 -0.503337 2.1663 2.16626C0.211219 4.12133 -0.373643 7.06161 0.684434 9.61604C1.74251 12.1705 4.23516 13.836 7.00005 13.836C9.76495 13.836 12.2576 12.1705 13.3157 9.61604C14.3737 7.06161 13.7889 4.12133 11.8338 2.16626ZM4.52394 4.52397C5.89142 3.15648 8.10855 3.15648 9.47604 4.52397C10.4775 5.52544 10.7771 7.03156 10.2351 8.34005C9.69312 9.64853 8.41628 10.5017 6.99999 10.5017C5.5837 10.5017 4.30686 9.64853 3.76487 8.34005C3.22288 7.03156 3.52247 5.52544 4.52394 4.52397ZM5.16616 7.00002C5.16616 6.72388 5.39002 6.50002 5.66616 6.50002H6.49998V5.66614C6.49998 5.39 6.72384 5.16614 6.99998 5.16614C7.27612 5.16614 7.49998 5.39 7.49998 5.66614V6.50002H8.33394C8.61008 6.50002 8.83394 6.72388 8.83394 7.00002C8.83394 7.27616 8.61008 7.50002 8.33394 7.50002H7.49998V8.33391C7.49998 8.61006 7.27612 8.83391 6.99998 8.83391C6.72384 8.83391 6.49998 8.61006 6.49998 8.33391V7.50002H5.66616C5.39002 7.50002 5.16616 7.27616 5.16616 7.00002Z" fill="black"/>
</svg>
