<svg width="22" height="22" viewBox="0 0 22 22" fill="none" xmlns="http://www.w3.org/2000/svg">
<path fill-rule="evenodd" clip-rule="evenodd" d="M11 0.5C11.4142 0.5 11.75 0.835786 11.75 1.25V3.25C11.75 3.66421 11.4142 4 11 4C10.5858 4 10.25 3.66421 10.25 3.25V1.25C10.25 0.835786 10.5858 0.5 11 0.5ZM11.75 19.25C11.75 18.8358 11.4142 18.5 11 18.5C10.5858 18.5 10.25 18.8358 10.25 19.25V21.25C10.25 21.6642 10.5858 22 11 22C11.4142 22 11.75 21.6642 11.75 21.25V19.25ZM7.9948 8.2448C6.33507 9.90452 6.33507 12.5955 7.9948 14.2552C9.65452 15.9149 12.3455 15.9149 14.0052 14.2552C15.6649 12.5955 15.6649 9.90452 14.0052 8.2448C12.3455 6.58507 9.65452 6.58507 7.9948 8.2448ZM15.0659 7.18413C12.8204 4.93862 9.17965 4.93862 6.93413 7.18413C4.68862 9.42965 4.68862 13.0704 6.93413 15.3159C9.17965 17.5614 12.8204 17.5614 15.0659 15.3159C17.3114 13.0704 17.3114 9.42965 15.0659 7.18413ZM18.6004 3.64966C18.8933 3.94256 18.8933 4.41743 18.6004 4.71032L17.8904 5.42032C17.5975 5.71322 17.1227 5.71322 16.8298 5.42032C16.5369 5.12743 16.5369 4.65256 16.8298 4.35966L17.5398 3.64966C17.8327 3.35677 18.3075 3.35677 18.6004 3.64966ZM5.17026 18.1403C5.46315 17.8474 5.46315 17.3725 5.17026 17.0797C4.87737 16.7868 4.40249 16.7868 4.1096 17.0797L3.3996 17.7897C3.10671 18.0825 3.10671 18.5574 3.3996 18.8503C3.69249 19.1432 4.16737 19.1432 4.46026 18.8503L5.17026 18.1403ZM18.25 11.25C18.25 10.8358 18.5858 10.5 19 10.5H21C21.4142 10.5 21.75 10.8358 21.75 11.25C21.75 11.6642 21.4142 12 21 12H19C18.5858 12 18.25 11.6642 18.25 11.25ZM1 10.5C0.585786 10.5 0.25 10.8358 0.25 11.25C0.25 11.6642 0.585786 12 1 12H3C3.41421 12 3.75 11.6642 3.75 11.25C3.75 10.8358 3.41421 10.5 3 10.5H1ZM16.8298 17.0797C17.1227 16.7868 17.5975 16.7868 17.8904 17.0797L18.6004 17.7897C18.8933 18.0825 18.8933 18.5574 18.6004 18.8503C18.3075 19.1432 17.8327 19.1432 17.5398 18.8503L16.8298 18.1403C16.5369 17.8474 16.5369 17.3725 16.8298 17.0797ZM4.46026 3.64966C4.16737 3.35677 3.69249 3.35677 3.3996 3.64966C3.10671 3.94256 3.10671 4.41743 3.3996 4.71032L4.1096 5.42032C4.40249 5.71322 4.87737 5.71322 5.17026 5.42032C5.46315 5.12743 5.46315 4.65256 5.17026 4.35966L4.46026 3.64966Z" fill="#6C89A9"/>
</svg>
