<svg width="24" height="25" viewBox="0 0 24 25" fill="none" xmlns="http://www.w3.org/2000/svg">
<path fill-rule="evenodd" clip-rule="evenodd" d="M13.6584 17.059C14.05 16.9239 14.4769 17.1319 14.612 17.5234L14.731 17.8684C15.2778 19.457 14.4338 21.1883 12.8451 21.7352C11.2567 22.2819 9.526 21.438 8.97898 19.8496L8.85998 19.5046C8.72492 19.113 8.93286 18.6861 9.32444 18.551C9.71601 18.4159 10.1429 18.6239 10.278 19.0154L10.397 19.3604C10.6742 20.1657 11.5515 20.5941 12.3569 20.3168C13.1621 20.0397 13.59 19.1627 13.3129 18.3573L13.194 18.0126C13.0589 17.621 13.2669 17.1941 13.6584 17.059Z" fill="#6C89A9"/>
<path fill-rule="evenodd" clip-rule="evenodd" d="M8.11073 2.74089C9.46046 2.27595 10.9301 2.9932 11.395 4.34151L11.6941 5.20973C11.829 5.60136 11.6209 6.0282 11.2293 6.16311C10.8376 6.29801 10.4108 6.0899 10.2759 5.69827L9.97696 4.83049C9.78184 4.26503 9.16562 3.96415 8.59949 4.15903M8.11073 2.74089C6.76265 3.20575 6.04507 4.67512 6.50873 6.02383L6.80788 6.89227C6.94279 7.2839 7.36963 7.49201 7.76126 7.35711C8.15289 7.2222 8.361 6.79536 8.2261 6.40373L7.92725 5.53617C7.7331 4.97102 8.03378 4.35424 8.59949 4.15903" fill="#6C89A9"/>
<path fill-rule="evenodd" clip-rule="evenodd" d="M15.1278 8.71908C14.4476 6.74469 12.2954 5.69508 10.3213 6.37511L8.60725 6.96511C6.63285 7.64531 5.58307 9.79756 6.2631 11.7717L7.17207 14.4136C7.40956 15.1031 7.36456 15.8586 7.04397 16.515L6.64745 17.329C6.50204 17.628 6.48104 17.9712 6.58907 18.2846C6.79424 18.8802 7.44358 19.1969 8.03872 18.9919L18.1737 15.5019C18.7693 15.2967 19.0859 14.6474 18.8809 14.0523C18.7739 13.7406 18.5461 13.4822 18.2471 13.336L17.4326 12.9393C16.7777 12.6201 16.2757 12.0534 16.0379 11.3634L15.1278 8.71908ZM16.5461 8.23074C15.5963 5.47329 12.5906 4.007 9.83288 4.95684L8.11888 5.54684C5.36147 6.49667 3.89503 9.50231 4.84479 12.26L5.75379 14.902C5.86215 15.2164 5.84138 15.5594 5.69609 15.8568L5.29873 16.6726C4.98014 17.3276 4.93295 18.0828 5.17092 18.7734C5.64577 20.1517 7.14837 20.8851 8.52718 20.4101L18.6622 16.9201C20.0405 16.4453 20.774 14.9427 20.2992 13.5639M16.5461 8.23074L17.4561 10.8746C17.5643 11.1886 17.7924 11.4459 18.0894 11.5907L18.9044 11.9877C19.5591 12.3075 20.0621 12.874 20.2992 13.5639" fill="#6C89A9"/>
<circle cx="20" cy="4.25" r="4" fill="url(#paint0_linear)"/>
<defs>
<linearGradient id="paint0_linear" x1="23.5022" y1="0.250001" x2="15.8221" y2="0.849707" gradientUnits="userSpaceOnUse">
<stop stop-color="#FF1B2D"/>
<stop offset="1" stop-color="#DF006B"/>
</linearGradient>
</defs>
</svg>
