<svg width="20" height="20" viewBox="0 0 20 20" fill="none" xmlns="http://www.w3.org/2000/svg">
<path fill-rule="evenodd" clip-rule="evenodd" d="M18.6134 7.12761L19.4214 3.23969C19.7513 1.65297 18.3471 0.248827 16.7604 0.578709L12.8724 1.3867C11.5846 1.65439 10.4029 2.29255 9.47343 3.22299L7.15169 5.54401L4.38389 5.54401L4.37819 5.54404C3.91704 5.54754 3.47795 5.73329 3.15456 6.05668L0.3996 8.81164C-0.289329 9.50307 0.0438073 10.6857 0.997475 10.9109L3.78136 11.5685C3.67501 12.5727 3.93183 13.5743 4.4931 14.3974L4.51304 14.4264L3.33979 15.5997C3.04689 15.8926 3.04689 16.3674 3.33979 16.6603C3.63268 16.9532 4.10755 16.9532 4.40045 16.6603L5.57355 15.4872C5.62618 15.5238 5.67956 15.559 5.73365 15.593C6.53025 16.094 7.47936 16.3191 8.4303 16.218L9.08801 19.0024C9.31329 19.9561 10.4959 20.2892 11.1873 19.6003L13.9423 16.8453C14.2656 16.5219 14.4514 16.0828 14.4549 15.6217V12.8488L16.7771 10.5267C17.7078 9.59711 18.3457 8.41562 18.6134 7.12761ZM12.9549 14.2897C12.054 15.0298 11.0148 15.5819 9.89981 15.9141L10.4448 18.2214L12.8816 15.7847C12.9277 15.7385 12.9539 15.6764 12.9549 15.6122V14.2897ZM8.86103 14.6299C10.2468 14.3452 11.523 13.6594 12.5277 12.6547L15.7167 9.46567C15.9718 9.21095 16.1986 8.93182 16.3945 8.63324C15.0078 6.69282 13.3072 4.99224 11.3668 3.6055C11.0684 3.80134 10.7894 4.02806 10.5347 4.28301L7.34441 7.47233C6.34335 8.47342 5.6594 9.74434 5.37226 11.125C5.36961 11.1405 5.36646 11.1559 5.3628 11.1714L5.36252 11.1726C5.33747 11.2972 5.31566 11.4227 5.29713 11.5489L5.29671 11.5518L5.28628 11.6209L5.28601 11.6227C5.1995 12.2207 5.3143 12.8225 5.6007 13.3388L10.4098 8.52967C10.7027 8.23677 11.1776 8.23677 11.4704 8.52967C11.7633 8.82256 11.7633 9.29743 11.4704 9.59033L6.66123 14.3995C7.1773 14.6857 7.77927 14.8002 8.37703 14.7131L8.37853 14.7129L8.45157 14.7019C8.58186 14.6828 8.71134 14.6603 8.83989 14.6343C8.84693 14.6327 8.85398 14.6313 8.86103 14.6299ZM12.944 2.90948C14.4958 4.1101 15.89 5.50431 17.0906 7.05612C17.1104 6.97876 17.1285 6.90083 17.1448 6.8224L17.9528 2.93431C18.0628 2.4051 17.595 1.93725 17.0658 2.04729L13.1777 2.85531C13.0993 2.87161 13.0213 2.88968 12.944 2.90948ZM4.0857 10.0991C4.41826 8.98427 4.97012 7.94504 5.71034 7.04401L4.3877 7.04401C4.32352 7.045 4.26137 7.07119 4.21522 7.11734L1.77844 9.55412L4.0857 10.0991Z" fill="#6C89A9"/>
</svg>
