<svg width="24" height="24" viewBox="0 0 24 24" fill="none" xmlns="http://www.w3.org/2000/svg">
<path d="M19.6465 7.71569C19.5547 7.38408 19.3757 7.08175 19.1272 6.83883C18.8788 6.5959 18.5696 6.42085 18.2305 6.3311C16.9888 6 11.9917 6 11.9917 6C11.9917 6 6.99433 6.01002 5.7527 6.34112C5.41355 6.43088 5.10436 6.60594 4.85592 6.84888C4.60748 7.09181 4.42847 7.39415 4.3367 7.72578C3.96114 9.88288 3.81545 13.1698 4.34702 15.2406C4.43879 15.5722 4.61781 15.8746 4.86624 16.1175C5.11468 16.3604 5.42387 16.5355 5.76302 16.6252C7.00464 16.9563 12.0019 16.9563 12.0019 16.9563C12.0019 16.9563 16.9991 16.9563 18.2406 16.6252C18.5798 16.5355 18.889 16.3604 19.1375 16.1175C19.3859 15.8746 19.5649 15.5722 19.6567 15.2406C20.0528 13.0805 20.1749 9.79561 19.6465 7.71576V7.71569Z" fill="#FF0000"/>
<path d="M10.4012 13.8259L14.5468 11.4781L10.4013 9.13036L10.4012 13.8259Z" fill="white"/>
</svg>
