<svg width="128" height="48" fill="none" xmlns="http://www.w3.org/2000/svg"><path d="M19 23.49a4.655 4.655 0 001.792-3.863c.013-3.437-2.514-5.547-6.402-5.547H6.72v19.45h8.198c1.972 0 3.558-.524 4.75-1.555a5.176 5.176 0 001.791-4.14A4.737 4.737 0 0019 23.49zm-7.307-4.965h2.558a1.486 1.486 0 011.581 1.528 1.473 1.473 0 01-1.581 1.532h-2.558v-3.06zm3.091 10.56h-3.091v-3.28h3.091a1.64 1.64 0 010 3.28zm15.469-9.835a7.117 7.117 0 00-5.304 2.11 7.21 7.21 0 00-2.101 5.266 7.039 7.039 0 002.11 5.25c1.416 1.345 3.306 2.057 5.667 2.057 2.612 0 4.615-.86 5.977-2.58l-3.338-2.335a3.584 3.584 0 01-2.527.973c-1.612 0-2.638-.556-3.113-1.699h9.605a6.82 6.82 0 00.192-1.72 7.167 7.167 0 00-2.029-5.238 6.877 6.877 0 00-5.139-2.083zm-2.688 5.825c.39-1.303 1.304-1.944 2.724-1.944a2.46 2.46 0 012.612 1.944h-5.336zm20.931-1.017v-4.422h-2.89v-3.89l-4.61 1.39v2.5H38.91v4.422h2.087v4.14c0 2.196.556 3.724 1.667 4.584 1.111.86 3.052 1.11 5.824.748v-4.167c-2.083.112-2.89-.054-2.89-1.277v-4.032l2.899.004z" fill="#FF0025"/><path d="M63.307 23.49a4.654 4.654 0 001.792-3.863c.013-3.437-2.513-5.547-6.411-5.547h-7.66v19.45h8.193c1.976 0 3.557-.524 4.753-1.555a5.19 5.19 0 001.792-4.14 4.737 4.737 0 00-2.46-4.346zM56 18.524h2.554a1.492 1.492 0 011.585 1.528 1.476 1.476 0 01-1.585 1.532H56v-3.06zm3.082 10.56H56v-3.28h3.082a1.64 1.64 0 010 3.28zm15.506-9.834a7.233 7.233 0 00-5.251 2.138 6.977 6.977 0 00-2.168 5.197 7.039 7.039 0 002.168 5.225 7.21 7.21 0 005.25 2.11 7.123 7.123 0 005.251-2.11 7.039 7.039 0 002.168-5.225 6.976 6.976 0 00-2.168-5.197 7.17 7.17 0 00-5.25-2.137zm0 10.225a2.746 2.746 0 01-2.778-2.89 2.795 2.795 0 115.586 0 2.736 2.736 0 01-2.808 2.89zM90.787 19.25a7.236 7.236 0 00-5.25 2.138 6.977 6.977 0 00-2.169 5.197 7.039 7.039 0 002.169 5.225 7.216 7.216 0 005.25 2.11 7.123 7.123 0 005.25-2.11 7.037 7.037 0 002.17-5.225 6.976 6.976 0 00-2.17-5.197 7.169 7.169 0 00-5.25-2.137zm0 10.225a2.746 2.746 0 01-2.777-2.89 2.795 2.795 0 115.586 0 2.736 2.736 0 01-2.809 2.89zm24.949-10.225a4.88 4.88 0 00-4.032 1.793c-.779-1.197-1.975-1.793-3.557-1.793-1.581 0-2.867.556-3.763 1.694v-1.308H99.77v13.89h4.614v-7.582c0-1.442.663-2.334 1.917-2.334 1.165 0 1.748.64 1.748 1.945v7.975h4.614v-7.585c0-1.443.668-2.335 1.917-2.335 1.138 0 1.721.64 1.721 1.945v7.975h4.659v-8.513c0-3.571-2.003-5.767-5.224-5.767z" fill="#F8E800"/></svg>