<svg width="16" height="17" fill="none" xmlns="http://www.w3.org/2000/svg"><g clip-path="url(#clip0)"><path d="M13.714.125H2.286A2.286 2.286 0 000 2.411v11.428a2.286 2.286 0 002.286 2.286h11.428A2.286 2.286 0 0016 13.839V2.411A2.286 2.286 0 0013.714.125z" fill="#E9A21A"/><path d="M2.286.125H8v9.714l2.147 6.286H2.286A2.286 2.286 0 010 13.839V2.411A2.286 2.286 0 012.286.125z" fill="#313E77"/><path d="M15.429 2.526h-1.57v-.189h-.124v-.503h-.185V2.4h-.186v-.126H9.966v-.126h-.372l-.753.189-.062-.377.445-.252v-.64L9.162.942 9.1.816V.628C8.926.376 8.309.125 7.975.125c-.346 0-.656.038-1.001.566-.347.528-.124 1.143-.124 1.143v.314c-.16-.138-.507-.188-.507-.188-.914 0-1.322 1.42-1.322 1.898 0 .477.061.83.061.83h-.507c-.16 0-.185.339-.185.69-.012.353-.111.906-.062 1.019.037.1.445.126.445.126s-.111.05-.247.251c-.149.213 0 .766 0 .766v.893l-.087.05-.123.126v.189l.062.125-.062.189v.251l.123.189s-.05.326-.123.691c-.074.377-.062 1.332-.062 1.332-.173.013-.185.251-.185.251s-.038.051-.248.377a1.878 1.878 0 00-.308.893c-.038.239-.199.415-.372.691-.185.277.124.629.124.629-.322.791-.395 1.357-.408 1.696h1.199a2.193 2.193 0 01-.099-.628c0-.352.31-.955.31-.955l.247-.063.061-.251c.05-.214.272-.667.446-1.019.16-.352 0-.565 0-.565l.123-.315.185-.188.248-.314.185-.252.062-.314s.136-.414.185-.691c.05-.29.445-.691.445-.691l.062-.315.31.503.37.063.816 1.333h.445l.124.125v.566l-.186.251.124.955.062.692.123.125.123.955-.185.126-.061.88h2.447v-.05l-.062-.189-.247-.126-.309-.125-.63-.692.061-.892.124-.251v-.44l-.124-.252.124-.628.062-1.206-.124-.063v-.377h-.124s-.247-.717-.37-1.082c-.136-.364-.594-1.017-.816-1.206-.223-.188-.235-.515-.247-.628-.013-.126.123-.252.123-.252s.062.038.186.063c.123.025.123-.063.123-.063l.124-.251.123-.189.062-.566v-.828a.583.583 0 00-.309-.44l.062-.252.247.126.309.126.371.188.445.126.31-.063.308-.188.31-.44.123-.566.185-.063.062-.126-.062-.251v-.566l.247-.188.062-.126.186-.126h1.446v-.188h2.015v-.289h.025zm-5.155 1.458l-.185-.377.506.063-.321.314zm.445-.503h-.371l.123-.251h.248v.251z" fill="#fff"/></g><defs><clipPath id="clip0"><path d="M0 4.125a4 4 0 014-4h8a4 4 0 014 4v8a4 4 0 01-4 4H4a4 4 0 01-4-4v-8z" fill="#fff"/></clipPath></defs></svg>