<svg width="22" height="22" fill="none" xmlns="http://www.w3.org/2000/svg"><g opacity=".5"><path d="M18.857 0H3.143A3.143 3.143 0 000 3.143v15.714A3.143 3.143 0 003.143 22h15.714A3.143 3.143 0 0022 18.857V3.143A3.143 3.143 0 0018.857 0z" fill="#2E1D0F"/><path d="M15.695 15.765l-.61-1.858c.228-.322.417-.672.566-1.043l3.206-1.915-3.246-1.913a5.043 5.043 0 00-.495-.902l.536-2.11-2.044.672a5.038 5.038 0 00-.77-.39l-1.89-3.163-1.857 3.151c-.3.12-.59.267-.862.44L5.91 6.068l.69 2.346c-.134.225-.25.459-.347.701l-3.111 1.834 3.072 1.835c.104.275.232.54.383.793l-.643 2.232 2.145-.63c.308.21.64.384.99.524l1.859 3.154 1.89-3.167c.294-.119.576-.265.842-.436l2.014.511z" fill="#FF9C00"/><path d="M11 14.929a3.929 3.929 0 100-7.858 3.929 3.929 0 000 7.858z" fill="#2E1D0F"/><path d="M8.679 13.605c-.042-.059-.104-.267-.104-.267l-.116-.243s-.104-.173.116-.139c.22.035 1.019.348 1.459.36.44.01.67-.22.752-.244.08-.024.555-.208.694-.231.14-.024.996-.548 1.123-1.807.127-1.26-1.007-2-1.656-2.012 0 0-.404-.012-.497.046-.093.058-.695.335-.96.37 0 0-.22.209-.186.464.035.254.035 1.13.96 1.132 0 0 .222-.12.199-.985 0 0 1.151-.096 1.181.985.03 1.08-1.032 1.23-1.69 1.2-.659-.03-2.051-.943-1.946-2.394l.08-.517.233-.267s.532-1.076 1.747-1.4c0 0 .104-.174.232-.174.127 0 .23.14.416.162.185.024.255-.173.429-.162.172.011.184.14.37.173.185.036 1.088.14 1.817 1.135 0 0 .035.254.138.3.105.048.348.152.383.233.034.08.277.949.255 1.319-.024.37-.128 2.094-1.273 2.627l-.024.312s-.856.765-2.165.672c-1.307-.093-1.659-.23-1.967-.648z" fill="#39CCFF"/></g></svg>