<svg width="22" height="22" fill="none" xmlns="http://www.w3.org/2000/svg"><g opacity=".5"><path d="M18.857 0H3.143A3.143 3.143 0 000 3.143v15.714A3.143 3.143 0 003.143 22h15.714A3.143 3.143 0 0022 18.857V3.143A3.143 3.143 0 0018.857 0z" fill="#0C2B4C"/><path d="M16.502 11.232c0-2.881-2.056-5.27-4.716-5.653V3.93c3.532.388 6.285 3.51 6.285 7.303 0 1.98-.99 3.697-.99 3.697h-1.884a5.836 5.836 0 001.305-3.697zM5.5 17.287c-1.454-1.406-2.357-3.352-2.357-5.5s.903-4.092 2.357-5.5V9.28a5.876 5.876 0 00-.566 2.507c0 .892.206 1.74.566 2.506v2.994zm0 1.571l1.307-1.585V4.734L5.5 3.143h4.743v13.153h7.828l-1.75 2.558-10.821.003z" fill="#F3AE25"/></g></svg>