<svg width="160" height="51" fill="none" xmlns="http://www.w3.org/2000/svg"><path fill-rule="evenodd" clip-rule="evenodd" d="M74.175 19.14l-.389 1.764-.494 2.366h2.542l1.906-8.58h-2.753l-4.766 6.003-1.519-6.002H65.95l-2.72 8.579h2.578l.741-2.366.565-1.765.176.706.46 1.836h.035l.388 1.589h2.718l1.271-1.589h.036l1.447-1.836.53-.706z" fill="#fff"/><path fill-rule="evenodd" clip-rule="evenodd" d="M158.694 14.69l-1.165 4.414h-7.485l-3.601 13.451h-5.331l3.601-13.451h-7.449l1.165-4.413h20.265zm-38.8 4.414c-.247.989-.424 1.553-.671 2.542h11.898l-1.024 3.813h-11.898c-.317 1.2-.423 1.518-.741 2.718h15.746l-1.165 4.413h-18.111c-1.624 0-2.578-1.341-2.154-2.965 1.059-3.99 2.154-7.98 3.213-12.004.423-1.624 2.118-2.965 3.742-2.965h18.111l-1.2 4.413c-5.508.035-10.203.035-15.746.035z" fill="#F5333F"/><path fill-rule="evenodd" clip-rule="evenodd" d="M81.553 16.81c-.14.458-.211.74-.317 1.2h5.72l-.495 1.835h-5.72c-.14.565-.211.742-.353 1.307h7.556l-.565 2.118h-8.72c-.777 0-1.236-.636-1.024-1.412.53-1.907 1.023-3.849 1.553-5.755.212-.777 1.024-1.412 1.8-1.412h8.72l-.564 2.118h-7.59zm-37.387 0c-.282 1.058-.635 2.365-1.165 4.342h5.084l.247-.918h-2.577l.53-1.907h3.318c.741 0 1.2.6.988 1.342l-.388 1.483-.212.741c-.212.741-.953 1.342-1.73 1.342h-7.06c-.742 0-1.201-.6-.99-1.342l1.59-5.896c.211-.741.988-1.341 1.73-1.341h8.155l-.565 2.118c-2.436.035-4.554.035-6.955.035z" fill="#fff"/><path fill-rule="evenodd" clip-rule="evenodd" d="M87.484 31.672v.812-.282l.036-.07v-.072l.035-.07.035-.107-.106-.212zm7.273-6.143h10.662l-.847 3.178c-3.566 0-7.132.035-10.697.035l.176-.706.706-2.507zm1.73-6.425h10.662l-.706 2.613H95.781l.706-2.613zm9.885 13.486c1.554 0 3.143-1.27 3.566-2.824.459-1.695.424-1.624.883-3.283.423-1.554-.494-2.825-2.048-2.825 1.554 0 3.142-1.27 3.566-2.824.459-1.695.424-1.624.883-3.283.423-1.554-.495-2.825-2.083-2.825h-19.1l-.742 2.719-.459 1.694-1.447 5.402-.953 3.495-.954 3.495v.036l-.035.105v.283l-.035.07-.035.071v.071l-.036.07v.036l-.035.105-.035.106h19.099v.106z" fill="#F5333F"/><path fill-rule="evenodd" clip-rule="evenodd" d="M58.676 20.057l-.706-2.789-2.189 2.79h2.895zm3.566 3.213h-2.754l-.353-1.377h-4.801l-1.095 1.377h-2.753l6.849-8.614h2.718l2.189 8.614zm-1.482 3.919c-.566 2.189-.354 1.341-.99 3.636h4.625c.6-2.295.389-1.447.989-3.636h-4.625zm-2.402 5.401c-.635 0-1.023-.53-.882-1.165.423-1.588.847-3.212 1.27-4.801.177-.636.848-1.165 1.483-1.165h6.532c.635 0 1.024.53.882 1.165-.423 1.589-.847 3.213-1.27 4.801-.177.636-.848 1.165-1.483 1.165h-6.532zm-2.577-2.648c.636 0 1.271-.494 1.448-1.13.176-.67.423-1.588.6-2.294.176-.636-.212-1.13-.812-1.13h-7.661l-.46 1.765h6.532l-.282.989h-5.402c-.635 0-1.27.494-1.447 1.13-.283 1.094-.6 2.189-.883 3.283h2.26c.247-.953.458-1.66.706-2.613h5.401zm18.076 2.648h2.26l-.777-2.86h.423c.636 0 1.271-.494 1.448-1.13l.53-2.012c.176-.635-.212-1.13-.813-1.13h-7.66l-.46 1.766h6.532l-.283.989c-1.8 0-3.6.035-5.401.035-.636 0-1.271.494-1.448 1.13a110.859 110.859 0 01-.882 3.248h2.26c.246-.954.493-1.907.776-2.86h2.718l.777 2.824zm-27.608-4.554c.636 0 .988.494.812 1.13-.176.67-.424 1.588-.6 2.295-.177.635-.812 1.13-1.448 1.13h-7.449l.459-1.766h6.32l.282-.988h-5.402c-.635 0-.988-.495-.812-1.13.177-.706.389-1.448.565-2.154.177-.6.777-1.094 1.412-1.094h7.414l-.459 1.765h-6.249l-.211.847h5.366v-.035zm40.565-2.612l-.494 1.765h-2.966l-1.448 5.401h-2.153l1.447-5.4h-3l.494-1.765h8.12z" fill="#fff"/><path d="M.035 40.481c-.141.706.141 2.013 1.342 2.33.035 0 .07.036.14.036 1.554.318 2.86-.671 3.496-1.024 3.107-1.871 4.519-3 5.825-3.46 1.73-.635 3.53-.388 4.731-.141 1.165.353 2.86 1.06 4.025 2.471.882 1.06 1.553 2.754 3.318 5.931.354.636.989 2.119 2.507 2.613.035 0 .07.035.141.035 1.236.318 2.119-.67 2.33-1.341.353-1.095 2.083-10.062 1.907-12.286-.106-1.413-.812-3.107-2.26-4.202.283-2.4-.14-4.13-.776-6.284a8.62 8.62 0 002.365-3.99c.565-2.047.318-4.13-.53-5.93.212-7.555-3.106-14.052-3.106-14.052s-6.073 3.92-9.674 10.592a8.791 8.791 0 00-3.46 4.872 8.688 8.688 0 00.036 4.66c-1.624 1.553-2.86 2.824-3.813 5.013-1.8.212-3.248 1.342-4.06 2.507C3.248 30.702.282 39.316.035 40.48zm21.536-10.203c-1.271-.07-2.542-.211-3.742-.564-1.236-.318-2.401-.848-3.53-1.413-.107-1.13-.107-2.365-.036-3.671a8.641 8.641 0 004.236 2.612c1.73.46 3.46.389 5.014-.141-.636 1.2-1.271 2.26-1.942 3.177zm-3.142-19.7a32.639 32.639 0 012.4-3.106l5.543 1.482c.247 1.2.424 2.507.53 3.884a8.76 8.76 0 00-3.919-2.295 9.035 9.035 0 00-4.554.036zm4.13 1.519c3.778 1.023 6.002 4.907 4.978 8.65-1.023 3.777-4.907 6.001-8.65 4.977-3.777-1.024-6.001-4.907-4.977-8.65.988-3.742 4.872-5.966 8.65-4.977zm3.142 23.865c.565.142.883.742.742 1.307-.141.565-.742.882-1.306.741-.565-.141-.883-.741-.742-1.306a1.084 1.084 0 011.306-.742zm-1.73-3.036c.566.142.883.742.742 1.306-.141.565-.741.883-1.306.742-.565-.141-.883-.741-.742-1.306.142-.53.742-.883 1.307-.742zm-1.306 4.766c.565.142.883.742.742 1.307-.142.564-.742.882-1.307.741-.564-.141-.882-.741-.741-1.306.177-.565.777-.883 1.306-.742zm-1.73-3c.565.14.883.74.742 1.306-.141.565-.742.882-1.306.741-.565-.141-.883-.741-.742-1.306.177-.565.741-.918 1.306-.742zM6.672 31.443c.071-.248.353-.424.6-.354l1.66.424.424-1.66c.07-.246.353-.423.6-.352l.953.247c.247.07.424.353.353.6l-.424 1.66 1.66.423c.247.07.423.353.353.6l-.283.989c-.07.247-.353.423-.6.353l-1.66-.424-.423 1.624c-.07.247-.353.424-.6.353l-.953-.247c-.247-.07-.424-.353-.353-.6l.423-1.66-1.659-.423c-.247-.07-.424-.353-.353-.6l.282-.953z" fill="#F5333F"/><path d="M16.84 41.082c-.353 1.377-2.012 2.4-2.965 3.389-.318-1.342-1.236-3.072-.883-4.413.035-.177.141-.353.247-.53a3.054 3.054 0 00-1.765 2.013c-.636 2.33.706 5.19 1.165 7.449 1.518-1.73 4.13-3.495 4.766-5.825a3.164 3.164 0 00-.494-2.648c0 .176-.036.388-.07.565zm4.908-25.914a3.88 3.88 0 012.753 4.766c-.564 2.083-2.683 3.319-4.766 2.754s-3.318-2.683-2.753-4.766c.53-2.083 2.683-3.319 4.766-2.754zm21.014 21.316l-.905 4.413h-1.019l.736-3.564h-1.528l-.226 1.075c-.17.678-.34 1.188-.453 1.527-.17.34-.34.623-.566.792-.226.17-.452.227-.792.227-.17 0-.34 0-.509-.057l.226-.849h.17a.51.51 0 00.396-.17c.113-.112.226-.282.34-.565a4.18 4.18 0 00.282-1.075l.453-1.81h3.395v.056zm3.565 3.451H44.29l-.566.962h-1.075l2.829-4.413h1.018l1.075 4.413h-1.018l-.226-.962zm-.17-.792l-.396-1.697-1.019 1.697h1.415zm3.055-2.659h3.565l-.17.792h-2.546l-.17.905h1.245c.453 0 .792.113 1.018.283.227.227.34.51.34.849 0 .34-.057.566-.227.792-.17.226-.396.396-.735.51-.34.112-.679.169-1.132.169h-2.093l.905-4.3zm1.301 3.621c.283 0 .51-.057.68-.17.17-.113.226-.283.226-.509a.514.514 0 00-.17-.396 1.131 1.131 0 00-.51-.113h-1.018l-.226 1.188h1.019zm3.735.622a1.72 1.72 0 01-.736-.679 1.954 1.954 0 01-.283-1.018c0-.51.113-.962.34-1.358.226-.396.566-.735.962-.962.396-.226.905-.34 1.414-.34.453 0 .849.057 1.132.227.283.17.566.396.735.679.17.283.283.622.283 1.018 0 .51-.113.962-.34 1.358a2.614 2.614 0 01-.961.962c-.396.227-.905.34-1.415.34-.452 0-.792-.114-1.131-.227zm2.093-.905c.227-.17.453-.34.566-.622.113-.283.17-.566.17-.849 0-.34-.113-.622-.34-.792-.226-.226-.509-.283-.905-.283-.34 0-.622.056-.849.226-.226.17-.452.34-.566.623-.113.283-.17.566-.17.848 0 .34.114.623.34.793.226.226.51.282.905.282.283.057.566-.056.85-.226zm6.167-2.999c.283.227.453.566.453 1.019 0 .396-.113.679-.283.962-.17.282-.396.509-.735.622-.34.113-.68.226-1.132.226h-.962l-.226 1.188h-1.018l.905-4.413h1.754c.509.057.962.17 1.244.396zm-.848 1.754a.937.937 0 00.283-.679c0-.226-.057-.34-.227-.452-.113-.113-.34-.17-.622-.17h-.792l-.283 1.528h.849c.34 0 .622-.057.792-.227zm4.64 1.358h-2.037l-.566.962h-1.075l2.829-4.413h1.018l1.075 4.413h-1.018l-.227-.962zm-.17-.792l-.396-1.697-1.019 1.697h1.415zm5.997-1.867h-1.414l-.68 3.564h-1.018l.68-3.564H68.28l.17-.849h3.79l-.113.849zm1.132 3.451a1.72 1.72 0 01-.736-.679 1.954 1.954 0 01-.283-1.018c0-.51.113-.962.34-1.358.226-.396.566-.735.962-.962.396-.226.905-.34 1.414-.34.453 0 .849.057 1.132.227.283.17.566.396.735.679.17.283.283.622.283 1.018 0 .51-.113.962-.34 1.358a2.615 2.615 0 01-.961.962c-.396.227-.906.34-1.415.34-.452 0-.792-.114-1.131-.227zm2.093-.905c.227-.17.453-.34.566-.622.113-.283.17-.566.17-.849 0-.34-.113-.622-.34-.792-.226-.226-.509-.283-.905-.283-.34 0-.623.056-.849.226-.226.17-.452.34-.566.623-.113.283-.17.566-.17.848 0 .34.114.623.34.793.227.226.51.282.905.282.283.057.566-.056.85-.226zm6.168-2.999c.282.227.452.566.452 1.019 0 .396-.113.679-.283.962-.17.282-.396.509-.735.622-.34.113-.68.226-1.132.226h-.962l-.226 1.188h-1.019l.906-4.413h1.754c.509.057.962.17 1.244.396zm-.85 1.754a.937.937 0 00.284-.679c0-.226-.057-.34-.227-.452-.113-.113-.34-.17-.622-.17h-.792l-.283 1.528h.849c.34 0 .622-.057.792-.227zm2.547-2.093h1.018l-.565 2.885 2.659-2.885h.962l-.906 4.413h-1.018l.566-2.886-2.66 2.886h-.961l.905-4.413zm8.826 0l-.848 4.413h-1.019l.227-1.188h-.906l-1.018 1.188h-1.132l1.189-1.358a1.336 1.336 0 01-.51-.453c-.113-.17-.17-.452-.17-.678 0-.397.114-.736.283-1.019.17-.283.453-.51.793-.679.339-.17.735-.226 1.188-.226h1.923zm-2.829 1.075a.937.937 0 00-.282.679c0 .226.056.34.17.453.112.113.282.17.565.17h.905l.34-1.585h-.849c-.396 0-.679.113-.849.283zm9.223-.283h-1.415l-.735 3.621h-1.018l.678-3.564H94.59l.17-.85h3.79l-.113.793zm4.187 1.641c.113.17.17.34.17.566 0 .452-.17.792-.566 1.018-.34.226-.849.34-1.415.34h-2.32l.906-4.414h2.15c.453 0 .849.113 1.075.283.283.17.396.396.396.736 0 .283-.057.509-.226.679-.17.17-.34.34-.566.452.17.114.283.227.396.34zm-1.075 1.018a.514.514 0 00.226-.452c0-.283-.226-.453-.679-.453h-1.245l-.226 1.075h1.188c.34 0 .566-.057.736-.17zm-1.301-2.716l-.227 1.019h1.019c.283 0 .452-.057.622-.17a.514.514 0 00.226-.453c0-.282-.226-.396-.622-.396h-1.018zm4.356 3.508a1.717 1.717 0 01-.735-.679 1.952 1.952 0 01-.283-1.018c0-.51.113-.962.339-1.358.227-.396.566-.735.962-.962.396-.226.905-.34 1.415-.34.452 0 .848.057 1.131.227.283.17.566.396.736.679.17.283.283.622.283 1.018 0 .51-.113.962-.34 1.358a2.613 2.613 0 01-.962.962c-.396.227-.905.34-1.414.34-.453 0-.792-.114-1.132-.227zm2.094-.905c.226-.17.452-.34.566-.622.113-.283.169-.566.169-.849 0-.34-.113-.622-.339-.792-.227-.226-.509-.283-.905-.283-.34 0-.623.056-.849.226-.227.17-.453.34-.566.623-.113.283-.17.566-.17.848 0 .34.113.623.34.793.226.226.509.282.905.282.283.057.566-.056.849-.226zm3.168-3.338h1.019l-.566 2.885 2.659-2.885h.962l-.905 4.413h-1.019l.566-2.886-2.659 2.886h-.962l.905-4.413zm6.054 0l.623 1.358 1.188-1.358h1.188l-1.867 2.093 1.132 2.32h-1.189l-.735-1.471-1.302 1.471h-1.188l2.037-2.263-1.018-2.15h1.131zm9.845 0l-.905 4.413h-1.018l.678-3.564h-1.98l-.679 3.564h-1.018l.905-4.413h4.017zm1.528 4.243a1.72 1.72 0 01-.736-.679 1.96 1.96 0 01-.282-1.018c0-.51.113-.962.339-1.358.226-.396.566-.735.962-.962.396-.226.905-.34 1.414-.34.453 0 .849.057 1.132.227.283.17.566.396.736.679.169.283.282.622.282 1.018 0 .51-.113.962-.339 1.358a2.613 2.613 0 01-.962.962c-.396.227-.905.34-1.414.34a3.08 3.08 0 01-1.132-.227zm2.093-.905c.227-.17.453-.34.566-.622.113-.283.17-.566.17-.849 0-.34-.113-.622-.339-.792-.227-.226-.51-.283-.906-.283-.339 0-.622.056-.848.226-.227.17-.453.34-.566.623-.113.283-.17.566-.17.848 0 .34.113.623.339.793.227.226.51.282.906.282.283.057.566-.056.848-.226zm3.169-3.338h3.565l-.17.792h-2.546l-.17.905h1.245c.452 0 .792.113 1.018.283.226.227.34.51.34.849 0 .34-.057.566-.227.792-.169.226-.396.396-.735.51-.34.112-.679.169-1.132.169h-2.093l.905-4.3zm1.245 3.621c.283 0 .509-.057.679-.17.169-.113.226-.283.226-.509a.515.515 0 00-.17-.396 1.13 1.13 0 00-.509-.113h-.962l-.226 1.188h.962zm4.356-2.829l-.169.962h2.037l-.17.792h-2.037l-.226 1.018h2.376l-.113.85h-3.395l.905-4.414h3.339l-.17.792h-2.377zm6.79 2.772h.622l-.339 1.754h-.962l.17-.905h-3.112l-.17.905h-.962l.34-1.754h.113c.283 0 .509-.226.679-.622.226-.396.396-.962.566-1.64l.339-1.359h3.395l-.679 3.621zm-2.489-.792c-.114.34-.283.566-.453.736h1.924l.565-2.716h-1.527l-.17.679a10.38 10.38 0 01-.339 1.301z" fill="#fff"/></svg>