<svg width="22" height="22" fill="none" xmlns="http://www.w3.org/2000/svg"><g opacity=".5"><path d="M18.857 0H3.143A3.143 3.143 0 000 3.143v15.714A3.143 3.143 0 003.143 22h15.714A3.143 3.143 0 0022 18.857V3.143A3.143 3.143 0 0018.857 0z" fill="#43484D"/><path d="M16.714 6.117l-1.51 1.633s1.51 1.634 1.51 3.403c0 1.497-.686 2.722-.686 2.722l-3.159-2.858-1.373-2.858v4.491l2.966 2.913s-1.14 1.115-3.242 1.17c-2.1-.055-3.24-1.17-3.24-1.17l2.966-2.913V8.16l-1.373 2.858-3.159 2.858s-.687-1.225-.687-2.722c0-1.77 1.51-3.403 1.51-3.403l-1.51-1.633c-1.785 1.905-2.06 3.947-2.06 5.036 0 1.089.275 3.13 1.922 5.036 1.649 1.905 3.709 2.586 5.631 2.586 1.923 0 3.984-.68 5.632-2.586 1.648-1.905 1.922-3.947 1.922-5.036 0-1.089-.275-3.13-2.06-5.036z" fill="#F3F3F3"/><path d="M15.616 5.047C13.418 3.672 11.7 3.645 11.22 3.672c-.48-.027-2.197 0-4.395 1.375L8.2 6.68s1.305-.776 3.021-.817c1.717.04 3.022.817 3.022.817l1.374-1.634z" fill="#F99E19"/></g></svg>