<svg width="42" height="42" fill="none" xmlns="http://www.w3.org/2000/svg"><path fill-rule="evenodd" clip-rule="evenodd" d="M30.167 10.167H11.833c-.92 0-1.666.746-1.666 1.666v18.334c0 .92.746 1.666 1.666 1.666h18.334c.92 0 1.666-.746 1.666-1.666V11.833c0-.92-.746-1.666-1.666-1.666zM11.833 8.5A3.333 3.333 0 008.5 11.833v18.334a3.333 3.333 0 003.333 3.333h18.334a3.333 3.333 0 003.333-3.333V11.833A3.333 3.333 0 0030.167 8.5H11.833z" fill="url(#paint0_linear)"/><path fill-rule="evenodd" clip-rule="evenodd" d="M20.167 10.167V4.333h1.666v5.834h-1.666z" fill="url(#paint1_linear)"/><path fill-rule="evenodd" clip-rule="evenodd" d="M21 1.833A.833.833 0 1021 3.5a.833.833 0 000-1.667zm-2.5.834a2.5 2.5 0 115 0 2.5 2.5 0 01-5 0z" fill="url(#paint2_linear)"/><path fill-rule="evenodd" clip-rule="evenodd" d="M26.833 10.167V6.833H28.5v3.334h-1.667z" fill="url(#paint3_linear)"/><path fill-rule="evenodd" clip-rule="evenodd" d="M27.667 4.333a.833.833 0 100 1.667.833.833 0 000-1.667zm-2.5.834a2.5 2.5 0 115 0 2.5 2.5 0 01-5 0z" fill="url(#paint4_linear)"/><path fill-rule="evenodd" clip-rule="evenodd" d="M13.5 10.167V6.833h1.667v3.334H13.5z" fill="url(#paint5_linear)"/><path fill-rule="evenodd" clip-rule="evenodd" d="M14.333 4.333a.833.833 0 100 1.667.833.833 0 000-1.667zm-2.5.834a2.5 2.5 0 115 0 2.5 2.5 0 01-5 0z" fill="url(#paint6_linear)"/><path fill-rule="evenodd" clip-rule="evenodd" d="M21.833 31.833v5.834h-1.666v-5.834h1.666z" fill="url(#paint7_linear)"/><path fill-rule="evenodd" clip-rule="evenodd" d="M21 40.167a.833.833 0 100-1.667.833.833 0 000 1.667zm2.5-.834a2.5 2.5 0 11-5 0 2.5 2.5 0 015 0z" fill="url(#paint8_linear)"/><path fill-rule="evenodd" clip-rule="evenodd" d="M15.167 31.833v3.334H13.5v-3.334h1.667z" fill="url(#paint9_linear)"/><path fill-rule="evenodd" clip-rule="evenodd" d="M14.333 37.667a.833.833 0 100-1.667.833.833 0 000 1.667zm2.5-.834a2.5 2.5 0 11-5 0 2.5 2.5 0 015 0z" fill="url(#paint10_linear)"/><path fill-rule="evenodd" clip-rule="evenodd" d="M28.5 31.833v3.334h-1.667v-3.334H28.5z" fill="url(#paint11_linear)"/><path fill-rule="evenodd" clip-rule="evenodd" d="M27.667 37.667a.833.833 0 100-1.667.833.833 0 000 1.667zm2.5-.834a2.5 2.5 0 11-5 0 2.5 2.5 0 015 0z" fill="url(#paint12_linear)"/><path fill-rule="evenodd" clip-rule="evenodd" d="M31.833 20.167h5.834v1.666h-5.834v-1.666z" fill="url(#paint13_linear)"/><path fill-rule="evenodd" clip-rule="evenodd" d="M40.167 21a.833.833 0 10-1.667 0 .833.833 0 001.667 0zm-.834-2.5a2.5 2.5 0 110 5 2.5 2.5 0 010-5z" fill="url(#paint14_linear)"/><path fill-rule="evenodd" clip-rule="evenodd" d="M31.833 26.833h3.334V28.5h-3.334v-1.667z" fill="url(#paint15_linear)"/><path fill-rule="evenodd" clip-rule="evenodd" d="M37.667 27.667a.833.833 0 10-1.667 0 .833.833 0 001.667 0zm-.834-2.5a2.5 2.5 0 110 5 2.5 2.5 0 010-5z" fill="url(#paint16_linear)"/><path fill-rule="evenodd" clip-rule="evenodd" d="M31.833 13.5h3.334v1.667h-3.334V13.5z" fill="url(#paint17_linear)"/><path fill-rule="evenodd" clip-rule="evenodd" d="M37.667 14.333a.833.833 0 10-1.667 0 .833.833 0 001.667 0zm-.834-2.5a2.5 2.5 0 110 5 2.5 2.5 0 010-5z" fill="url(#paint18_linear)"/><path fill-rule="evenodd" clip-rule="evenodd" d="M10.167 20.167H4.333v1.666h5.834v-1.666z" fill="url(#paint19_linear)"/><path fill-rule="evenodd" clip-rule="evenodd" d="M1.833 21A.833.833 0 113.5 21a.833.833 0 01-1.667 0zm.834-2.5a2.5 2.5 0 100 5 2.5 2.5 0 000-5z" fill="url(#paint20_linear)"/><path fill-rule="evenodd" clip-rule="evenodd" d="M10.167 26.833H6.833V28.5h3.334v-1.667z" fill="url(#paint21_linear)"/><path fill-rule="evenodd" clip-rule="evenodd" d="M4.333 27.667a.833.833 0 111.667 0 .833.833 0 01-1.667 0zm.834-2.5a2.5 2.5 0 100 5 2.5 2.5 0 000-5z" fill="url(#paint22_linear)"/><path fill-rule="evenodd" clip-rule="evenodd" d="M10.167 13.5H6.833v1.667h3.334V13.5z" fill="url(#paint23_linear)"/><path fill-rule="evenodd" clip-rule="evenodd" d="M4.333 14.333a.833.833 0 111.667 0 .833.833 0 01-1.667 0zm.834-2.5a2.5 2.5 0 100 5 2.5 2.5 0 000-5z" fill="url(#paint24_linear)"/><path d="M20.807 23.007H16.14l-.92 2.16h-1.787l4.2-9.334h1.707l4.213 9.334H21.74l-.933-2.16zm-.574-1.36l-1.76-4.08-1.746 4.08h3.506z" fill="url(#paint25_linear)"/><path d="M24.74 15.833h1.734v9.334H24.74v-9.334z" fill="url(#paint26_linear)"/><defs><linearGradient id="paint0_linear" x1="1.231" y1=".167" x2="44.326" y2="3.632" gradientUnits="userSpaceOnUse"><stop stop-color="#FF1B2D"/><stop offset="1" stop-color="#DF006B"/></linearGradient><linearGradient id="paint1_linear" x1="1.231" y1=".167" x2="44.326" y2="3.632" gradientUnits="userSpaceOnUse"><stop stop-color="#FF1B2D"/><stop offset="1" stop-color="#DF006B"/></linearGradient><linearGradient id="paint2_linear" x1="1.231" y1=".167" x2="44.326" y2="3.632" gradientUnits="userSpaceOnUse"><stop stop-color="#FF1B2D"/><stop offset="1" stop-color="#DF006B"/></linearGradient><linearGradient id="paint3_linear" x1="1.231" y1=".167" x2="44.326" y2="3.632" gradientUnits="userSpaceOnUse"><stop stop-color="#FF1B2D"/><stop offset="1" stop-color="#DF006B"/></linearGradient><linearGradient id="paint4_linear" x1="1.231" y1=".167" x2="44.326" y2="3.632" gradientUnits="userSpaceOnUse"><stop stop-color="#FF1B2D"/><stop offset="1" stop-color="#DF006B"/></linearGradient><linearGradient id="paint5_linear" x1="1.231" y1=".167" x2="44.326" y2="3.632" gradientUnits="userSpaceOnUse"><stop stop-color="#FF1B2D"/><stop offset="1" stop-color="#DF006B"/></linearGradient><linearGradient id="paint6_linear" x1="1.231" y1=".167" x2="44.326" y2="3.632" gradientUnits="userSpaceOnUse"><stop stop-color="#FF1B2D"/><stop offset="1" stop-color="#DF006B"/></linearGradient><linearGradient id="paint7_linear" x1="1.231" y1=".167" x2="44.326" y2="3.632" gradientUnits="userSpaceOnUse"><stop stop-color="#FF1B2D"/><stop offset="1" stop-color="#DF006B"/></linearGradient><linearGradient id="paint8_linear" x1="1.231" y1=".167" x2="44.326" y2="3.632" gradientUnits="userSpaceOnUse"><stop stop-color="#FF1B2D"/><stop offset="1" stop-color="#DF006B"/></linearGradient><linearGradient id="paint9_linear" x1="1.231" y1=".167" x2="44.326" y2="3.632" gradientUnits="userSpaceOnUse"><stop stop-color="#FF1B2D"/><stop offset="1" stop-color="#DF006B"/></linearGradient><linearGradient id="paint10_linear" x1="1.231" y1=".167" x2="44.326" y2="3.632" gradientUnits="userSpaceOnUse"><stop stop-color="#FF1B2D"/><stop offset="1" stop-color="#DF006B"/></linearGradient><linearGradient id="paint11_linear" x1="1.231" y1=".167" x2="44.326" y2="3.632" gradientUnits="userSpaceOnUse"><stop stop-color="#FF1B2D"/><stop offset="1" stop-color="#DF006B"/></linearGradient><linearGradient id="paint12_linear" x1="1.231" y1=".167" x2="44.326" y2="3.632" gradientUnits="userSpaceOnUse"><stop stop-color="#FF1B2D"/><stop offset="1" stop-color="#DF006B"/></linearGradient><linearGradient id="paint13_linear" x1="1.231" y1=".167" x2="44.326" y2="3.632" gradientUnits="userSpaceOnUse"><stop stop-color="#FF1B2D"/><stop offset="1" stop-color="#DF006B"/></linearGradient><linearGradient id="paint14_linear" x1="1.231" y1=".167" x2="44.326" y2="3.632" gradientUnits="userSpaceOnUse"><stop stop-color="#FF1B2D"/><stop offset="1" stop-color="#DF006B"/></linearGradient><linearGradient id="paint15_linear" x1="1.231" y1=".167" x2="44.326" y2="3.632" gradientUnits="userSpaceOnUse"><stop stop-color="#FF1B2D"/><stop offset="1" stop-color="#DF006B"/></linearGradient><linearGradient id="paint16_linear" x1="1.231" y1=".167" x2="44.326" y2="3.632" gradientUnits="userSpaceOnUse"><stop stop-color="#FF1B2D"/><stop offset="1" stop-color="#DF006B"/></linearGradient><linearGradient id="paint17_linear" x1="1.231" y1=".167" x2="44.326" y2="3.632" gradientUnits="userSpaceOnUse"><stop stop-color="#FF1B2D"/><stop offset="1" stop-color="#DF006B"/></linearGradient><linearGradient id="paint18_linear" x1="1.231" y1=".167" x2="44.326" y2="3.632" gradientUnits="userSpaceOnUse"><stop stop-color="#FF1B2D"/><stop offset="1" stop-color="#DF006B"/></linearGradient><linearGradient id="paint19_linear" x1="1.231" y1=".167" x2="44.326" y2="3.632" gradientUnits="userSpaceOnUse"><stop stop-color="#FF1B2D"/><stop offset="1" stop-color="#DF006B"/></linearGradient><linearGradient id="paint20_linear" x1="1.231" y1=".167" x2="44.326" y2="3.632" gradientUnits="userSpaceOnUse"><stop stop-color="#FF1B2D"/><stop offset="1" stop-color="#DF006B"/></linearGradient><linearGradient id="paint21_linear" x1="1.231" y1=".167" x2="44.326" y2="3.632" gradientUnits="userSpaceOnUse"><stop stop-color="#FF1B2D"/><stop offset="1" stop-color="#DF006B"/></linearGradient><linearGradient id="paint22_linear" x1="1.231" y1=".167" x2="44.326" y2="3.632" gradientUnits="userSpaceOnUse"><stop stop-color="#FF1B2D"/><stop offset="1" stop-color="#DF006B"/></linearGradient><linearGradient id="paint23_linear" x1="1.231" y1=".167" x2="44.326" y2="3.632" gradientUnits="userSpaceOnUse"><stop stop-color="#FF1B2D"/><stop offset="1" stop-color="#DF006B"/></linearGradient><linearGradient id="paint24_linear" x1="1.231" y1=".167" x2="44.326" y2="3.632" gradientUnits="userSpaceOnUse"><stop stop-color="#FF1B2D"/><stop offset="1" stop-color="#DF006B"/></linearGradient><linearGradient id="paint25_linear" x1="1.231" y1=".167" x2="44.326" y2="3.632" gradientUnits="userSpaceOnUse"><stop stop-color="#FF1B2D"/><stop offset="1" stop-color="#DF006B"/></linearGradient><linearGradient id="paint26_linear" x1="1.231" y1=".167" x2="44.326" y2="3.632" gradientUnits="userSpaceOnUse"><stop stop-color="#FF1B2D"/><stop offset="1" stop-color="#DF006B"/></linearGradient></defs></svg>