<svg width="13" height="14" fill="none" xmlns="http://www.w3.org/2000/svg"><path fill-rule="evenodd" clip-rule="evenodd" d="M4 .5c-.967 0-1.866.156-2.542.426-.336.135-.642.308-.872.525-.231.218-.419.516-.42.881v8.001c.001.367.188.664.42.883.23.217.535.39.872.525.675.27 1.574.426 2.542.426.756 0 1.465-.096 2.06-.266A3.5 3.5 0 107.833 6.7V5.036a1.046 1.046 0 000-.063V2.297c-.012-.35-.195-.636-.418-.847-.23-.218-.536-.39-.873-.525C5.867.656 4.967.5 4 .5zm2.766 10.623a2.502 2.502 0 014.002-2.891 2.5 2.5 0 11-4.002 2.891zm-1.127-.145A6.809 6.809 0 014 11.167c-.873 0-1.64-.143-2.171-.355-.267-.107-.449-.221-.557-.323-.104-.099-.105-.151-.105-.156v-1.39c.093.047.19.09.29.13.676.271 1.575.427 2.543.427.552 0 1.082-.051 1.56-.145-.1.538-.074 1.095.079 1.623zM1.167 7.641a.51.51 0 010 .026c0 .003 0 .056.106.156.107.101.29.216.556.322.53.213 1.298.355 2.171.355.779 0 1.473-.114 1.991-.29a3.506 3.506 0 01.842-.96v-.973a3.64 3.64 0 01-.29.13c-.675.27-1.574.426-2.542.426-.968 0-1.867-.156-2.543-.426-.1-.04-.198-.083-.291-.13V7.64zm0-2.667V5c0 .003 0 .056.106.156.107.101.29.216.556.323.53.212 1.298.354 2.172.354.873 0 1.64-.142 2.171-.354.267-.107.45-.222.557-.323.086-.082.101-.132.104-.15V3.61a3.64 3.64 0 01-.29.13c-.676.27-1.575.427-2.543.427-.968 0-1.867-.156-2.543-.427a3.64 3.64 0 01-.29-.13v1.364zm5.666-2.641v.007c-.003.017-.019.067-.105.15-.108.1-.29.215-.556.322-.531.212-1.299.355-2.172.355-.873 0-1.64-.143-2.171-.355-.267-.107-.45-.221-.557-.323-.102-.097-.105-.15-.105-.155 0-.006.003-.059.106-.156.107-.102.29-.216.557-.323C2.36 1.643 3.127 1.5 4 1.5s1.64.142 2.17.355c.268.106.45.22.557.322.106.1.106.153.106.156z" fill="#6C89A9"/></svg>