<svg width="16" height="16" fill="none" xmlns="http://www.w3.org/2000/svg"><path fill-rule="evenodd" clip-rule="evenodd" d="M1.813 7.468c0-3.042 2.73-5.573 6.187-5.573 3.457 0 6.188 2.531 6.188 5.574v.009c-.006 3.038-2.735 5.564-6.188 5.564-.425 0-.84-.04-1.244-.114a.56.56 0 00-.408.035l-1.836.91v-1.491a.565.565 0 00-.25-.48c-1.499-1.027-2.45-2.633-2.45-4.434zM8 .77c3.967 0 7.306 2.928 7.313 6.688v.01c0 3.766-3.342 6.7-7.313 6.7-.453 0-.894-.04-1.323-.112l-2.452 1.216a.562.562 0 01-.837-.491 1508.473 1508.473 0 00-.002-2.122C1.756 11.443.687 9.585.687 7.469.688 3.701 4.03.77 8 .77zM5.825 5c0-.31.252-.563.563-.563h3.225a.563.563 0 110 1.125H6.388A.563.563 0 015.825 5zM5 6.875A.563.563 0 005 8h6a.562.562 0 100-1.125H5zm1.388 2.438a.563.563 0 000 1.124h3.225a.563.563 0 100-1.124H6.388z" fill="#6C89A9"/></svg>