<svg width="24" height="24" fill="none" xmlns="http://www.w3.org/2000/svg"><path fill-rule="evenodd" clip-rule="evenodd" d="M4 3.75a.75.75 0 000 1.5h16a.75.75 0 000-1.5H4zM3.25 9.5A.75.75 0 014 8.75h16a.75.75 0 010 1.5H4a.75.75 0 01-.75-.75zM4 13.75a.75.75 0 000 1.5h7a.75.75 0 000-1.5H4zm0 5a.75.75 0 000 1.5h7a.75.75 0 000-1.5H4zm10.47-4.78a.75.75 0 011.06 0l1.97 1.97 1.97-1.97a.75.75 0 111.06 1.06L18.56 17l1.97 1.97a.75.75 0 11-1.06 1.06l-1.97-1.97-1.97 1.97a.75.75 0 11-1.06-1.06L16.44 17l-1.97-1.97a.75.75 0 010-1.06z" fill="url(#paint0_linear)"/><defs><linearGradient id="paint0_linear" x1="19.661" y1="3.75" x2="2.874" y2="5.14" gradientUnits="userSpaceOnUse"><stop stop-color="#FF1B2D"/><stop offset="1" stop-color="#DF006B"/></linearGradient></defs></svg>