<svg width="14" height="14" fill="none" xmlns="http://www.w3.org/2000/svg"><path fill-rule="evenodd" clip-rule="evenodd" d="M4.333 1.833A.167.167 0 004.167 2v5.333c0 1.197.97 2.167 2.166 2.167h1.334c1.196 0 2.166-.97 2.166-2.167V2a.167.167 0 00-.166-.167H4.333zm-1.127 6A3.168 3.168 0 006.333 10.5H6.5v1.667H5a.5.5 0 100 1h4a.5.5 0 000-1H7.5V10.5h.167a3.168 3.168 0 003.127-2.667H11a2.5 2.5 0 002.5-2.5V4c0-.644-.523-1.167-1.167-1.167h-1.5V2c0-.644-.522-1.167-1.166-1.167H4.333C3.69.833 3.167 1.356 3.167 2v.833h-1.5C1.023 2.833.5 3.356.5 4v1.333a2.5 2.5 0 002.5 2.5h.206zm-.04-1v-3h-1.5A.167.167 0 001.5 4v1.333a1.5 1.5 0 001.5 1.5h.167zm9.167-3h-1.5v3H11a1.5 1.5 0 001.5-1.5V4a.167.167 0 00-.167-.167z" fill="#6C89A9"/></svg>