<svg width="20" height="16" fill="none" xmlns="http://www.w3.org/2000/svg"><path fill-rule="evenodd" clip-rule="evenodd" d="M3.996.246a3.75 3.75 0 00-3.75 3.75v8.006a3.75 3.75 0 003.75 3.75h12.008a3.75 3.75 0 003.75-3.75V3.996a3.75 3.75 0 00-3.75-3.75H3.996zm-2.25 3.75a2.25 2.25 0 012.25-2.25h12.008a2.25 2.25 0 012.25 2.25v8.006a2.25 2.25 0 01-2.25 2.25H3.996a2.25 2.25 0 01-2.25-2.25V3.996zM5.892 5.11a.75.75 0 00-.788 1.277L8.031 8.19l.394-.639-.394.639a3.752 3.752 0 003.938 0l-.394-.639.394.639 2.926-1.804a.75.75 0 00-.787-1.277l-2.927 1.804a2.252 2.252 0 01-2.363 0L5.892 5.11z" fill="#fff"/></svg>