<svg width="14" height="14" fill="none" xmlns="http://www.w3.org/2000/svg"><path fill-rule="evenodd" clip-rule="evenodd" d="M9.156 1.575a5.857 5.857 0 00-4.312 0l.602 1.2a4.52 4.52 0 013.109 0l.601-1.2zm.894.448l-.6 1.199a4.518 4.518 0 011.329 1.33l1.198-.602a5.831 5.831 0 00-1.926-1.927zm1.175 6.531a4.5 4.5 0 000-3.108l1.199-.601c.54 1.359.56 2.9 0 4.31l-1.2-.6zm-.447.895a4.5 4.5 0 01-1.33 1.329l.602 1.198a5.834 5.834 0 001.926-1.926l-1.198-.601zM2.873 2.873a5.851 5.851 0 011.077-.85l.601 1.199a4.52 4.52 0 00-1.329 1.33L2.024 3.95c.236-.385.52-.747.85-1.077zM1.577 4.845a5.835 5.835 0 000 4.31l1.198-.6a4.5 4.5 0 010-3.11l-1.198-.6zm.447 5.205l1.198-.601a4.5 4.5 0 001.33 1.329l-.601 1.198a5.834 5.834 0 01-1.927-1.926zm3.422 1.175l-.601 1.199a5.826 5.826 0 004.31 0l-.6-1.199a4.495 4.495 0 01-3.11 0zm6.388-9.059a6.836 6.836 0 10-9.668 9.668 6.836 6.836 0 009.668-9.668zm-7.31 2.358a3.502 3.502 0 114.952 4.952 3.502 3.502 0 01-4.952-4.952zM5.166 7a.5.5 0 01.5-.5H6.5v-.834a.5.5 0 011 0V6.5h.834a.5.5 0 010 1H7.5v.834a.5.5 0 11-1 0V7.5h-.834a.5.5 0 01-.5-.5z" fill="#000"/></svg>