<svg width="24" height="24" fill="none" xmlns="http://www.w3.org/2000/svg"><path fill-rule="evenodd" clip-rule="evenodd" d="M8.75 5a1.25 1.25 0 112.5 0v1.25H10c-.69 0-1.25-.56-1.25-1.25zm.518 2.75H4.5a.75.75 0 00-.75.75v1c0 .414.336.75.75.75h4.75V8c0-.085.006-.168.018-.25zm-.018 4h-4.5V19c0 .69.56 1.25 1.25 1.25h3.268A1.765 1.765 0 019.25 20v-8.25zm1.75 8.5a.25.25 0 01-.25-.25V8a.25.25 0 01.25-.25h2a.25.25 0 01.25.25v12a.25.25 0 01-.25.25h-2zm2 1.5H6A2.75 2.75 0 013.25 19v-7.629a2.248 2.248 0 01-1-1.871v-1A2.25 2.25 0 014.5 6.25h3.05A2.75 2.75 0 0112 3.113a2.75 2.75 0 014.45 3.137h3.05a2.25 2.25 0 012.25 2.25v1c0 .78-.397 1.467-1 1.871V19A2.75 2.75 0 0118 21.75h-5zm1.732-1.5a1.72 1.72 0 00.018-.25v-8.25h4.5V19c0 .69-.56 1.25-1.25 1.25h-3.268zm.018-10h4.75a.75.75 0 00.75-.75v-1a.75.75 0 00-.75-.75h-4.768c.012.082.018.165.018.25v2.25zm-1.75-4h1A1.25 1.25 0 1012.75 5v1.25H13z" fill="#FFB800"/></svg>