<svg width="17" height="16" fill="none" xmlns="http://www.w3.org/2000/svg"><path d="M7.998 1.442c2.137 0 2.388.01 3.233.047.78.035 1.203.165 1.486.276.374.146.641.318.92.597.28.28.455.547.598.921.108.283.24.705.276 1.486.038.845.048 1.096.048 3.233 0 2.136-.01 2.387-.048 3.232-.035.781-.165 1.203-.276 1.486a2.483 2.483 0 01-.597.92c-.28.28-.546.455-.921.598-.283.108-.705.241-1.486.276-.845.038-1.096.048-3.233.048s-2.387-.01-3.232-.048c-.781-.035-1.203-.165-1.486-.276a2.482 2.482 0 01-.92-.597 2.443 2.443 0 01-.598-.921c-.108-.283-.241-.705-.276-1.486-.038-.845-.048-1.095-.048-3.232 0-2.137.01-2.388.048-3.233.035-.78.165-1.203.276-1.486.146-.374.318-.641.597-.92.28-.28.546-.455.921-.598.283-.108.705-.24 1.486-.276.845-.041 1.099-.047 3.232-.047zm0-1.442C5.827 0 5.553.01 4.7.048c-.85.038-1.432.174-1.94.371-.527.203-.971.48-1.416.924A3.968 3.968 0 00.42 2.76C.222 3.267.086 3.85.048 4.703.01 5.553 0 5.827 0 7.998c0 2.172.01 2.445.048 3.3.038.85.174 1.431.371 1.943a3.9 3.9 0 00.924 1.416c.445.444.892.717 1.416.924.508.197 1.09.333 1.944.371.854.039 1.124.048 3.299.048s2.444-.01 3.299-.048c.85-.038 1.432-.174 1.943-.371a3.9 3.9 0 001.416-.924c.445-.445.718-.892.924-1.416.197-.508.334-1.09.372-1.944.038-.854.047-1.124.047-3.299s-.01-2.445-.047-3.299c-.038-.85-.175-1.432-.372-1.943a3.899 3.899 0 00-.924-1.416 3.968 3.968 0 00-1.416-.924C12.736.219 12.154.083 11.3.044 10.443.01 10.17 0 7.998 0z" fill="url(#paint0_radial)"/><path d="M7.998 3.893A4.11 4.11 0 108 12.112a4.11 4.11 0 00-.002-8.22zm0 6.773a2.667 2.667 0 110-5.334 2.667 2.667 0 010 5.334z" fill="url(#paint1_radial)"/><path d="M12.27 4.687a.959.959 0 100-1.918.959.959 0 000 1.918z" fill="url(#paint2_radial)"/><defs><radialGradient id="paint0_radial" cx="0" cy="0" r="1" gradientUnits="userSpaceOnUse" gradientTransform="rotate(44.994 -1.214 3.898) scale(15.8408)"><stop stop-color="#4368C6"/><stop offset=".281" stop-color="#A734BA"/><stop offset=".594" stop-color="#E24A6F"/><stop offset="1" stop-color="#FBB554"/></radialGradient><radialGradient id="paint1_radial" cx="0" cy="0" r="1" gradientUnits="userSpaceOnUse" gradientTransform="rotate(45 -3.378 8.643) scale(8.13491)"><stop stop-color="#4368C6"/><stop offset=".281" stop-color="#A734BA"/><stop offset=".594" stop-color="#E24A6F"/><stop offset="1" stop-color="#FBB554"/></radialGradient><radialGradient id="paint2_radial" cx="0" cy="0" r="1" gradientUnits="userSpaceOnUse" gradientTransform="rotate(45 2.167 15.504) scale(1.89857)"><stop stop-color="#4368C6"/><stop offset=".281" stop-color="#A734BA"/><stop offset=".594" stop-color="#E24A6F"/><stop offset="1" stop-color="#FBB554"/></radialGradient></defs></svg>