<svg width="22" height="22" fill="none" xmlns="http://www.w3.org/2000/svg"><path fill-rule="evenodd" clip-rule="evenodd" d="M11 .5a.75.75 0 01.75.75v2a.75.75 0 01-1.5 0v-2A.75.75 0 0111 .5zm.75 18.75a.75.75 0 00-1.5 0v2a.75.75 0 001.5 0v-2zM7.995 8.245a4.25 4.25 0 106.01 6.01 4.25 4.25 0 00-6.01-6.01zm7.07-1.06a5.75 5.75 0 10-8.13 8.131 5.75 5.75 0 008.13-8.132zM18.6 3.65a.75.75 0 010 1.06l-.71.71a.75.75 0 11-1.06-1.06l.71-.71a.75.75 0 011.06 0zM5.17 18.14a.75.75 0 10-1.06-1.06l-.71.71a.75.75 0 101.06 1.06l.71-.71zm13.08-6.89a.75.75 0 01.75-.75h2a.75.75 0 010 1.5h-2a.75.75 0 01-.75-.75zM1 10.5A.75.75 0 001 12h2a.75.75 0 000-1.5H1zm15.83 6.58a.75.75 0 011.06 0l.71.71a.75.75 0 11-1.06 1.06l-.71-.71a.75.75 0 010-1.06zM4.46 3.65A.75.75 0 003.4 4.71l.71.71a.75.75 0 101.06-1.06l-.71-.71z" fill="#6C89A9"/></svg>