<svg width="24" height="24" fill="none" xmlns="http://www.w3.org/2000/svg"><path fill-rule="evenodd" clip-rule="evenodd" d="M16 2.25a.75.75 0 01.75.75v7.74a.75.75 0 01-1.5 0V3a.75.75 0 01.75-.75zm-8 0a.75.75 0 01.75.75v7.74a.75.75 0 01-1.5 0V3A.75.75 0 018 2.25z" fill="#00FFA3"/><path fill-rule="evenodd" clip-rule="evenodd" d="M13.388 9.113l1.33 2.696 2.972.432c1.271.184 1.776 1.746.857 2.641l-2.151 2.096.508 2.96c.217 1.264-1.109 2.23-2.246 1.633L12 20.173l-2.66 1.399c-1.135.595-2.463-.367-2.245-1.633l.508-2.96-2.151-2.096c-.919-.895-.414-2.457.857-2.641l2.973-.432 1.328-2.696c.568-1.151 2.21-1.151 2.778 0zm-1.389 9.463a.755.755 0 00-.374.1l-2.981 1.567a.068.068 0 01-.018.007h-.008a.055.055 0 01-.026-.011.055.055 0 01-.018-.021.024.024 0 01-.002-.007l.001-.019.575-3.35a.75.75 0 00-.216-.663l-2.434-2.371a.063.063 0 01-.012-.015.025.025 0 01-.002-.007.055.055 0 01.002-.028.055.055 0 01.014-.024.025.025 0 01.006-.004.068.068 0 01.019-.005l3.363-.489a.75.75 0 00.565-.41l1.503-3.05a.066.066 0 01.01-.015.025.025 0 01.006-.005.054.054 0 01.027-.007c.013 0 .022.004.027.007a.025.025 0 01.006.005.064.064 0 01.01.016l1.504 3.049a.75.75 0 00.565.41l3.363.49c.01 0 .016.003.018.004a.023.023 0 01.007.004c.004.004.01.011.014.024a.055.055 0 01.002.028.024.024 0 01-.002.007.063.063 0 01-.013.015l-2.433 2.37a.75.75 0 00-.216.665l.575 3.349a.038.038 0 010 .019v.004l-.001.003a.055.055 0 01-.019.021.055.055 0 01-.025.011.02.02 0 01-.007 0 .064.064 0 01-.018-.007l-2.982-1.567a.755.755 0 00-.375-.1z" fill="#00FFA3"/><path fill-rule="evenodd" clip-rule="evenodd" d="M7 3.75c-.69 0-1.25.56-1.25 1.25v2.861c0 .448.24.862.628 1.084l4.057 2.326a.75.75 0 11-.746 1.302l-4.057-2.326A2.75 2.75 0 014.25 7.86V5A2.75 2.75 0 017 2.25h10A2.75 2.75 0 0119.75 5v2.861c0 .985-.526 1.896-1.382 2.386l-4.057 2.326a.75.75 0 11-.746-1.302l4.057-2.326a1.25 1.25 0 00.628-1.084V5c0-.69-.56-1.25-1.25-1.25H7z" fill="#00FFA3"/></svg>