<svg width="16" height="16" fill="none" xmlns="http://www.w3.org/2000/svg"><path fill-rule="evenodd" clip-rule="evenodd" d="M2.667 2.167c-.644 0-1.167.522-1.167 1.166v9.334c0 1.013.82 1.833 1.833 1.833h9.334c1.013 0 1.833-.82 1.833-1.833v-4c0-.644-.523-1.167-1.167-1.167h-1.5V3.333c0-.644-.522-1.166-1.166-1.166h-8zM10.833 8V3.333a.167.167 0 00-.166-.166h-8a.167.167 0 00-.167.166v9.334c0 .46.373.833.833.833h7.7c-.128-.25-.2-.533-.2-.833V8zm1.834 5.5c.46 0 .833-.373.833-.833v-4a.167.167 0 00-.167-.167h-1.5v4.167c0 .46.373.833.834.833zm-8.5-8.167a.5.5 0 01.5-.5h4a.5.5 0 010 1h-4a.5.5 0 01-.5-.5zm.5 2.08a.5.5 0 100 1h4a.5.5 0 000-1h-4zm-.5 3.294a.5.5 0 01.5-.5h2a.5.5 0 110 1h-2a.5.5 0 01-.5-.5z" fill="#6C89A9"/></svg>