<svg width="24" height="25" fill="none" xmlns="http://www.w3.org/2000/svg"><path fill-rule="evenodd" clip-rule="evenodd" d="M13.658 17.059a.75.75 0 01.954.464l.119.345a3.042 3.042 0 01-5.752 1.982l-.119-.345a.75.75 0 011.418-.49l.119.345a1.542 1.542 0 102.916-1.003l-.119-.344a.75.75 0 01.464-.954zM8.11 2.74a2.584 2.584 0 013.285 1.602l.3.868a.75.75 0 01-1.42.488l-.298-.868a1.084 1.084 0 00-1.378-.671m-.488-1.418a2.585 2.585 0 00-1.602 3.283l.299.868a.75.75 0 001.418-.488l-.299-.868A1.085 1.085 0 018.6 4.16" fill="#6C89A9"/><path fill-rule="evenodd" clip-rule="evenodd" d="M15.128 8.72a3.782 3.782 0 00-4.807-2.345l-1.714.59a3.782 3.782 0 00-2.344 4.807l.91 2.642c.237.69.192 1.445-.129 2.101l-.397.814a1.251 1.251 0 00-.058.956 1.14 1.14 0 001.45.707l10.135-3.49a1.14 1.14 0 00.707-1.45 1.25 1.25 0 00-.634-.716l-.814-.397a2.75 2.75 0 01-1.395-1.576l-.91-2.644zm1.418-.49a5.282 5.282 0 00-6.713-3.273l-1.714.59a5.282 5.282 0 00-3.274 6.713l.909 2.642c.108.314.087.657-.058.955l-.397.816a2.752 2.752 0 00-.128 2.1 2.64 2.64 0 003.356 1.637l10.135-3.49a2.64 2.64 0 001.637-3.356M16.546 8.23l.91 2.644c.108.314.336.57.633.716l.815.397a2.75 2.75 0 011.395 1.576" fill="#6C89A9"/><circle cx="20" cy="4.25" r="4" fill="url(#paint0_linear)"/><defs><linearGradient id="paint0_linear" x1="23.502" y1=".25" x2="15.822" y2=".85" gradientUnits="userSpaceOnUse"><stop stop-color="#FF1B2D"/><stop offset="1" stop-color="#DF006B"/></linearGradient></defs></svg>