<svg width="19" height="19" fill="none" xmlns="http://www.w3.org/2000/svg"><path d="M13.758 18.025c-.3 0-.5 0-.8-.1-2.9-.5-5.9-2.2-8.3-4.7-2.4-2.4-4.1-5.3-4.6-8.2-.2-1.3.1-2.6 1.1-3.5l.7-.7c1.1-1.1 2.8-1.1 3.9 0l1 1.2c.9.9.9 2.3-.1 3.3l-.8.8c.6 1.3 1.4 2.5 2.5 3.6s2.3 1.9 3.6 2.5l.9-.9c.8-.8 2.3-.9 3.2 0l1.2 1.2c1.1 1.1 1.1 2.8 0 3.9l-.7.7c-.7.6-1.7.9-2.8.9zm-10.1-16.5c-.3 0-.6.1-.9.4l-.6.6c-.6.6-.8 1.4-.7 2.2.5 2.6 2 5.3 4.3 7.5 2.3 2.3 4.9 3.8 7.5 4.3.8.2 1.6-.1 2.2-.6l.7-.7c.5-.5.5-1.3 0-1.8l-1.2-1.1c-.3-.3-.8-.3-1.1 0l-.9.9c-.4.4-1.1.6-1.7.3-1.5-.6-2.8-1.6-4-2.8-1.2-1.2-2.2-2.6-2.8-4-.2-.6-.1-1.3.4-1.7l.8-.8c.4-.4.4-.9.1-1.2l-1.2-1.1c-.2-.3-.6-.4-.9-.4z" fill="#fff"/></svg>