<svg width="16" height="16" fill="none" xmlns="http://www.w3.org/2000/svg"><path fill-rule="evenodd" clip-rule="evenodd" d="M8 2.498a5.502 5.502 0 100 11.004A5.502 5.502 0 008 2.497zM1.498 8a6.503 6.503 0 1113.005 0A6.503 6.503 0 011.498 8zm6.486-3.168A2.032 2.032 0 0110.1 6.766c0 .687-.373 1.32-.973 1.654l-.885.491a.5.5 0 11-.486-.874l.885-.492a.891.891 0 00.459-.763 1.032 1.032 0 00-1.086-.95.5.5 0 01-.048 0 1.064 1.064 0 00-1.08.822.5.5 0 01-.975-.226 2.064 2.064 0 012.072-1.596zM8.4 10.2a.567.567 0 10-.801.801.567.567 0 00.8-.8z" fill="#6C89A9"/></svg>