<svg width="20" height="20" fill="none" xmlns="http://www.w3.org/2000/svg"><path fill-rule="evenodd" clip-rule="evenodd" d="M18.613 7.128l.808-3.888a2.25 2.25 0 00-2.66-2.661l-3.889.808a6.744 6.744 0 00-3.399 1.836L7.152 5.544H4.378c-.461.004-.9.19-1.223.513L.4 8.812a1.25 1.25 0 00.597 2.099l2.784.658a4.23 4.23 0 00.712 2.828l.02.03L3.34 15.6a.75.75 0 101.06 1.06l1.174-1.173a4.227 4.227 0 002.857.73l.657 2.785a1.25 1.25 0 002.1.598l2.754-2.755a1.75 1.75 0 00.513-1.223v-2.773l2.322-2.322a6.743 6.743 0 001.836-3.4zm-5.658 7.162A8.75 8.75 0 019.9 15.914l.545 2.307 2.437-2.436a.25.25 0 00.073-.173V14.29zm-4.094.34a7.25 7.25 0 003.667-1.975l3.189-3.19c.255-.254.482-.533.678-.832a21.668 21.668 0 00-5.028-5.027 5.24 5.24 0 00-.832.677l-3.19 3.19a7.256 7.256 0 00-1.982 3.698v.002a6.71 6.71 0 00-.066.376v.003l-.01.069-.001.002a2.73 2.73 0 00.315 1.716l4.809-4.81a.75.75 0 111.06 1.061L6.661 14.4c.516.286 1.118.4 1.716.313h.002l.073-.011a7.3 7.3 0 00.388-.068l.021-.004zm4.083-11.72a23.173 23.173 0 014.147 4.146 5.7 5.7 0 00.054-.234l.808-3.888a.75.75 0 00-.887-.887l-3.888.808a5.245 5.245 0 00-.234.054zM4.086 10.1A8.756 8.756 0 015.71 7.043H4.388a.25.25 0 00-.173.073L1.778 9.554l2.308.545z" fill="#6C89A9"/></svg>