<svg width="12" height="12" fill="none" xmlns="http://www.w3.org/2000/svg"><path fill-rule="evenodd" clip-rule="evenodd" d="M10.459 1.541a1.278 1.278 0 00-2.084 1.394.503.503 0 01.078.157 1.28 1.28 0 002.006.256c.5-.499.5-1.308 0-1.807zM7.945.834a2.277 2.277 0 00-.602 2.155L4.208 4.557a2.278 2.278 0 100 2.886L7.343 9.01a2.277 2.277 0 003.823 2.155 2.278 2.278 0 10-3.376-3.05L4.656 6.549a2.29 2.29 0 000-1.098L7.79 3.884a2.278 2.278 0 10.155-3.05zM3.62 6.502c.137-.32.137-.684 0-1.004a.504.504 0 01-.07-.14 1.28 1.28 0 00-2.01-.262 1.278 1.278 0 102.01 1.546.504.504 0 01.07-.14zm4.755 2.563a.504.504 0 00.078-.157 1.28 1.28 0 012.006-.256 1.278 1.278 0 11-2.084.413z" fill="#6C89A9"/></svg>