<svg width="14" height="14" fill="none" xmlns="http://www.w3.org/2000/svg"><path fill-rule="evenodd" clip-rule="evenodd" d="M7 .43a.5.5 0 01.45.28l1.84 3.76 4.116.606a.5.5 0 01.278.852l-2.98 2.924.703 4.133a.5.5 0 01-.727.526L7 11.561l-3.68 1.95a.5.5 0 01-.727-.526l.704-4.133-2.98-2.924a.5.5 0 01.277-.852l4.115-.606L6.551.71A.5.5 0 017 .43zm0 1.637L5.492 5.146a.5.5 0 01-.376.275l-3.38.498 2.448 2.403a.5.5 0 01.142.44l-.577 3.39 3.017-1.598a.5.5 0 01.468 0l3.017 1.598-.577-3.39a.5.5 0 01.142-.44l2.449-2.403-3.381-.498a.5.5 0 01-.376-.275L7 2.067z" fill="#6C89A9"/></svg>