<svg width="24" height="24" fill="none" xmlns="http://www.w3.org/2000/svg"><path fill-rule="evenodd" clip-rule="evenodd" d="M17.834 6.166a8.25 8.25 0 10-11.562 11.77A8.58 8.58 0 0112 15.75c2.202 0 4.207.83 5.73 2.186l.104-.102a8.25 8.25 0 000-11.667zm-1.295 12.725A7.079 7.079 0 0012 17.25a7.076 7.076 0 00-4.539 1.641 8.26 8.26 0 009.078 0zm2.355-13.785c3.808 3.807 3.808 9.98 0 13.788-3.807 3.808-9.98 3.808-13.788 0-3.808-3.807-3.808-9.98 0-13.788 3.807-3.808 9.98-3.808 13.788 0zM13.46 8.854a2.063 2.063 0 10-2.918 2.918 2.063 2.063 0 002.918-2.918zm1.06-1.06a3.563 3.563 0 10-5.038 5.038 3.563 3.563 0 005.038-5.038z" fill="url(#paint0_linear)"/><defs><linearGradient id="paint0_linear" x1="20.537" y1="2.25" x2="1.816" y2="3.712" gradientUnits="userSpaceOnUse"><stop stop-color="#FF1B2D"/><stop offset="1" stop-color="#DF006B"/></linearGradient></defs></svg>