<svg width="15" height="13" fill="none" xmlns="http://www.w3.org/2000/svg"><path d="M15 1.463a6.277 6.277 0 01-1.537 1.611 9.045 9.045 0 01-1.45 5.31 9.44 9.44 0 01-1.762 2.031c-.681.59-1.5 1.06-2.457 1.412a8.865 8.865 0 01-3.077.526A8.48 8.48 0 010 10.95c.255.029.5.043.734.043a5.98 5.98 0 003.822-1.336 2.958 2.958 0 01-1.787-.623A3.066 3.066 0 011.683 7.49a3.05 3.05 0 001.39-.052 2.99 2.99 0 01-1.767-1.075A3.044 3.044 0 01.604 4.38v-.039c.436.245.9.375 1.394.39a3.087 3.087 0 01-1-1.111 3.078 3.078 0 01-.37-1.484A3.1 3.1 0 011.046.57a8.784 8.784 0 002.806 2.303 8.46 8.46 0 003.536.957 3.079 3.079 0 01-.08-.71c0-.86.3-1.596.901-2.205A2.945 2.945 0 0110.383 0c.89 0 1.639.328 2.247.985a6.077 6.077 0 001.954-.758 3.01 3.01 0 01-1.352 1.726A6.09 6.09 0 0015 1.463z" fill="#00D1FF"/></svg>