<svg width="21" height="13" fill="none" xmlns="http://www.w3.org/2000/svg"><path fill-rule="evenodd" clip-rule="evenodd" d="M20.03 1.326c.148-.466 0-.805-.657-.805H17.19c-.55 0-.805.297-.953.614 0 0-1.123 2.712-2.69 4.47-.508.508-.742.678-1.017.678-.148 0-.339-.17-.339-.636V1.305c0-.55-.17-.805-.635-.805H8.125c-.339 0-.55.254-.55.508 0 .53.783.657.868 2.14v3.22c0 .698-.127.825-.402.825-.742 0-2.542-2.732-3.622-5.846C4.207.733 3.995.5 3.444.5H1.241C.606.5.5.797.5 1.114c0 .572.741 3.453 3.453 7.266 1.8 2.605 4.363 4.003 6.672 4.003 1.398 0 1.567-.318 1.567-.847v-1.97c0-.636.127-.742.572-.742.318 0 .89.17 2.182 1.42 1.482 1.482 1.737 2.16 2.563 2.16h2.181c.636 0 .932-.318.763-.932-.19-.614-.91-1.504-1.843-2.563-.508-.593-1.27-1.25-1.504-1.567-.317-.424-.233-.593 0-.975-.02 0 2.648-3.77 2.923-5.04z" fill="#2787F5"/></svg>