<svg width="16" height="12" fill="none" xmlns="http://www.w3.org/2000/svg"><path fill-rule="evenodd" clip-rule="evenodd" d="M2.09 4.813C3.123 2.7 5.427 1.313 8 1.313s4.877 1.387 5.91 3.5a2.69 2.69 0 010 2.374c-1.034 2.113-3.337 3.5-5.91 3.5S3.123 9.3 2.09 7.188A2.697 2.697 0 011.813 6c0-.407.093-.812.277-1.187zM8 .188c-2.964 0-5.682 1.598-6.92 4.13A3.822 3.822 0 00.686 6c0 .581.135 1.155.392 1.681 1.24 2.533 3.958 4.131 6.922 4.131 2.964 0 5.682-1.598 6.92-4.13A3.82 3.82 0 0015.313 6c0-.581-.135-1.155-.392-1.681C13.682 1.786 10.964.188 8 .188zm-1.194 4.62c.66-.66 1.728-.66 2.388 0a1.69 1.69 0 010 2.388 1.69 1.69 0 01-2.389 0 1.69 1.69 0 010-2.388zm-.796-.796a2.812 2.812 0 013.979 0 2.815 2.815 0 010 3.98 2.815 2.815 0 01-3.979 0 2.815 2.815 0 010-3.98z" fill="#6C89A9"/></svg>