<svg width="20" height="20" fill="none" xmlns="http://www.w3.org/2000/svg"><path fill-rule="evenodd" clip-rule="evenodd" d="M.354 9.75C.354 4.374 4.761 0 10.177 0 15.595 0 20 4.374 20 9.75c0 5.375-4.406 9.748-9.822 9.748a9.89 9.89 0 01-4.65-1.16l-5.19 1.65a.257.257 0 01-.264-.066.26.26 0 01-.06-.265L1.7 14.68A9.678 9.678 0 01.354 9.75zm5.542 6.44a7.782 7.782 0 004.282 1.277c4.29 0 7.78-3.462 7.78-7.717 0-4.257-3.49-7.72-7.78-7.72-4.291 0-7.781 3.463-7.781 7.72 0 1.635.512 3.2 1.48 4.524a.26.26 0 01.037.237l-.839 2.476 2.6-.827a.26.26 0 01.221.03zm8.856-4.72l.047.022c.19.092.342.164.43.308.127.212.077.795-.116 1.329-.243.677-1.315 1.233-1.803 1.276l-.072.007c-.112.011-.24.023-.4.023-.38 0-1.049-.065-2.461-.629-1.467-.586-2.913-1.842-4.074-3.537l-.009-.013a1.669 1.669 0 00-.033-.046c-.303-.4-1.008-1.45-1.008-2.562 0-1.236.591-1.939.94-2.16.33-.207 1.076-.305 1.213-.311l.099-.005h.014c.289 0 .497.175.654.552l.129.31c.201.484.56 1.349.587 1.401a.68.68 0 01.02.64l-.033.066a1.569 1.569 0 01-.237.376 9.273 9.273 0 00-.118.14c-.083.1-.169.203-.248.282a.469.469 0 00-.086.101.17.17 0 00.025.057c.162.276 1.35 1.91 2.914 2.589.068.03.294.123.307.123.014 0 .039-.025.056-.045.137-.154.577-.67.723-.886.129-.193.294-.29.491-.29.12 0 .234.036.34.074.234.085 1.45.68 1.709.807z" fill="#11BB19"/></svg>