<svg width="24" height="24" fill="none" xmlns="http://www.w3.org/2000/svg"><path d="M19.646 7.716a1.957 1.957 0 00-.519-.877 2.022 2.022 0 00-.896-.508C16.988 6 11.99 6 11.99 6s-4.997.01-6.238.341c-.34.09-.649.265-.897.508a1.957 1.957 0 00-.52.877c-.375 2.157-.52 5.444.011 7.515.092.331.27.634.52.877.248.242.557.418.896.507 1.242.331 6.239.331 6.239.331s4.997 0 6.239-.33c.339-.09.648-.266.896-.509.249-.242.428-.545.52-.876.396-2.16.518-5.445-.01-7.525z" fill="red"/><path d="M10.401 13.826l4.146-2.348L10.4 9.13v4.696z" fill="#fff"/></svg>