<svg width="24" height="24" fill="none" xmlns="http://www.w3.org/2000/svg"><path fill-rule="evenodd" clip-rule="evenodd" d="M11.912 4c-3.298 0-5.583.011-6.755 1.157C4.01 6.329 4 8.72 4 11.912c3.543-.107 5.163-.196 6.455-1.458 1.261-1.291 1.35-2.911 1.457-6.454zM5.156 18.844C4.011 17.67 4 15.279 4 12.088c3.543.107 5.162.196 6.454 1.458 1.262 1.292 1.35 2.912 1.458 6.454-3.298 0-5.583-.01-6.756-1.156zM12.09 20c.106-3.542.195-5.162 1.457-6.454 1.292-1.262 2.912-1.35 6.454-1.457 0 3.19-.011 5.582-1.156 6.755C17.67 19.989 15.386 20 12.088 20zm0-16c.106 3.543.195 5.163 1.457 6.454 1.292 1.262 2.912 1.35 6.454 1.458 0-3.19-.011-5.583-1.156-6.755C17.67 4.01 15.386 4 12.088 4z" fill="#fff"/><path fill-rule="evenodd" clip-rule="evenodd" d="M20 12.09v-.177c-3.542-.107-5.162-.196-6.454-1.458-1.262-1.292-1.35-2.911-1.458-6.454h-.176c-.107 3.543-.196 5.162-1.458 6.454-1.292 1.262-2.912 1.35-6.454 1.458v.176c3.542.107 5.162.196 6.454 1.457 1.262 1.293 1.35 2.912 1.458 6.455h.176c.107-3.543.196-5.163 1.458-6.455 1.292-1.261 2.912-1.35 6.454-1.457z" fill="#030E1B"/></svg>