<svg width="16" height="17" viewBox="0 0 16 17" fill="none" xmlns="http://www.w3.org/2000/svg">
<g clip-path="url(#clip0)">
<path d="M13.7143 0.125H2.28571C1.02335 0.125 0 1.14835 0 2.41071V13.8393C0 15.1017 1.02335 16.125 2.28571 16.125H13.7143C14.9767 16.125 16 15.1017 16 13.8393V2.41071C16 1.14835 14.9767 0.125 13.7143 0.125Z" fill="#E9A21A"/>
<path d="M2.28571 0.125H8V9.83929L10.1474 16.125H2.28571C1.67951 16.125 1.09812 15.8842 0.66947 15.4555C0.240816 15.0269 0 14.4455 0 13.8393V2.41071C0 1.80451 0.240816 1.22312 0.66947 0.79447C1.09812 0.365816 1.67951 0.125 2.28571 0.125V0.125Z" fill="#313E77"/>
<path d="M15.4286 2.52557H13.8589V2.337H13.7349V1.83414H13.5497V2.39986H13.364V2.27414H9.96575V2.14843H9.59432L8.84061 2.337L8.77889 1.95986L9.22403 1.70843V1.06786L9.16175 0.942143L9.10003 0.816429V0.627857C8.92632 0.376429 8.30861 0.125 7.97489 0.125C7.62861 0.125 7.31946 0.162714 6.97375 0.690714C6.62746 1.21871 6.84975 1.83414 6.84975 1.83414V2.14843C6.68918 2.01014 6.34289 1.95986 6.34289 1.95986C5.42861 1.95986 5.02061 3.38043 5.02061 3.85814C5.02061 4.33529 5.08232 4.68729 5.08232 4.68729H4.57546C4.41489 4.68729 4.38975 5.02671 4.38975 5.37871C4.37775 5.73071 4.27889 6.28386 4.32803 6.397C4.36518 6.49757 4.77318 6.52271 4.77318 6.52271C4.77318 6.52271 4.66175 6.573 4.52575 6.77414C4.37718 6.98729 4.52575 7.54043 4.52575 7.54043V8.433L4.43946 8.48329L4.31603 8.609V8.79757L4.37775 8.92329L4.31603 9.11186V9.36329L4.43946 9.55186C4.43946 9.55186 4.38975 9.87814 4.31603 10.2433C4.24175 10.6204 4.25375 11.5747 4.25375 11.5747C4.08118 11.5879 4.06861 11.8261 4.06861 11.8261C4.06861 11.8261 4.03146 11.877 3.82118 12.2033C3.59832 12.5301 3.53718 12.857 3.51261 13.0959C3.47546 13.3347 3.31432 13.5107 3.14118 13.7873C2.95603 14.0639 3.26518 14.4159 3.26518 14.4159C2.94346 15.2073 2.86975 15.773 2.85718 16.1124H4.05603C3.9927 15.9088 3.9594 15.6971 3.95718 15.4839C3.95718 15.1319 4.26632 14.529 4.26632 14.529L4.51375 14.4661L4.57546 14.2147C4.62461 14.001 4.84746 13.5484 5.02061 13.1964C5.18061 12.8444 5.02061 12.6307 5.02061 12.6307L5.14403 12.3164L5.32918 12.1279L5.57661 11.8136L5.76232 11.5621L5.82403 11.2479C5.82403 11.2479 5.96003 10.8336 6.00918 10.557C6.05889 10.2679 6.45432 9.86557 6.45432 9.86557L6.51603 9.55129L6.82518 10.0541L7.19603 10.117L8.01203 11.4496H8.45661L8.58061 11.5753V12.141L8.39489 12.3924L8.51889 13.3473L8.58061 14.0387L8.70403 14.1644L8.82746 15.1193L8.64232 15.245L8.58061 16.125H11.028V16.0747L10.9663 15.8861L10.7189 15.7604L10.4103 15.6347L9.77946 14.9433L9.84118 14.0513L9.96518 13.7999V13.3599L9.84118 13.1084L9.96518 12.4799L10.0269 11.2736L9.90289 11.2107V10.8336H9.77946C9.77946 10.8336 9.53203 10.117 9.40861 9.75243C9.27261 9.38843 8.81546 8.73471 8.59261 8.54614C8.37032 8.35757 8.35832 8.03071 8.34575 7.91757C8.33318 7.79186 8.46918 7.66614 8.46918 7.66614C8.46918 7.66614 8.53089 7.70386 8.65489 7.729C8.77832 7.75414 8.77832 7.66614 8.77832 7.66614L8.90175 7.41471L9.02518 7.22614L9.08746 6.66043V5.83186C9.05032 5.51757 8.77832 5.39186 8.77832 5.39186L8.84003 5.14043L9.08746 5.26614L9.39603 5.39186L9.76746 5.58043L10.212 5.70614L10.5212 5.64329L10.8297 5.45471L11.1395 5.01471L11.2629 4.449L11.448 4.38614L11.5103 4.26043L11.448 4.009V3.44329L11.6955 3.25471L11.7572 3.129L11.9429 3.00329H13.3886V2.81529H15.404V2.52614H15.4286V2.52557ZM10.2743 3.98386L10.0886 3.60671L10.5955 3.66957L10.2737 3.98386H10.2743ZM10.7189 3.481H10.348L10.4715 3.22957H10.7189V3.481Z" fill="white"/>
</g>
<defs>
<clipPath id="clip0">
<path d="M0 4.125C0 1.91586 1.79086 0.125 4 0.125H12C14.2091 0.125 16 1.91586 16 4.125V12.125C16 14.3341 14.2091 16.125 12 16.125H4C1.79086 16.125 0 14.3341 0 12.125V4.125Z" fill="white"/>
</clipPath>
</defs>
</svg>
