<svg width="19" height="18" viewBox="0 0 19 18" fill="none" xmlns="http://www.w3.org/2000/svg">
<path d="M15.9286 0H3.07143C1.65127 0 0.5 1.15127 0.5 2.57143V15.4286C0.5 16.8487 1.65127 18 3.07143 18H15.9286C17.3487 18 18.5 16.8487 18.5 15.4286V2.57143C18.5 1.15127 17.3487 0 15.9286 0Z" fill="#A51C0F"/>
<path d="M13.4921 2.57139L14.5753 3.64432L14.1125 6.14311L11.192 3.46046L13.4921 2.57139ZM4.57891 15.4285L3.07141 13.581L4.12827 10.4284L7.1317 14.1377L4.57955 15.4285H4.57891ZM14.9514 14.5427L12.83 14.7143L3.07141 3.30168L3.88141 2.57139H4.53713L15.9286 11.2628L14.9514 14.5427Z" fill="white"/>
</svg>
