<svg width="22" height="22" viewBox="0 0 22 22" fill="none" xmlns="http://www.w3.org/2000/svg">
<g opacity="0.5">
<path d="M18.8571 0H3.14286C1.4071 0 0 1.4071 0 3.14286V18.8571C0 20.5929 1.4071 22 3.14286 22H18.8571C20.5929 22 22 20.5929 22 18.8571V3.14286C22 1.4071 20.5929 0 18.8571 0Z" fill="#2E1D0F"/>
<path d="M15.6954 15.7653L15.0849 13.9071C15.3128 13.585 15.5022 13.2353 15.6507 12.8637L18.8572 10.9489L15.6114 9.03568C15.4775 8.71919 15.3117 8.41721 15.1164 8.13446L15.6522 6.02482L13.6078 6.69582C13.3627 6.54439 13.1051 6.41427 12.8378 6.30689L10.9489 3.14282L9.09073 6.29432C8.79016 6.41342 8.50156 6.56075 8.2288 6.73432L5.91095 6.06804L6.6008 8.41418C6.46737 8.6385 6.35152 8.87282 6.2543 9.11504L3.14288 10.9489L6.21502 12.7835C6.3191 13.0587 6.44714 13.3243 6.59766 13.5771L5.95495 15.8085L8.09995 15.1784C8.40795 15.3882 8.73952 15.5634 9.08995 15.7025L10.9489 18.8571L12.8394 15.6899C13.1329 15.5713 13.4147 15.4253 13.6809 15.2538L15.6954 15.7653Z" fill="#FF9C00"/>
<path d="M11 14.9287C13.1697 14.9287 14.9286 13.1698 14.9286 11.0001C14.9286 8.83041 13.1697 7.07153 11 7.07153C8.83031 7.07153 7.07143 8.83041 7.07143 11.0001C7.07143 13.1698 8.83031 14.9287 11 14.9287Z" fill="#2E1D0F"/>
<path d="M8.67899 13.6047C8.63656 13.5465 8.57527 13.3383 8.57527 13.3383L8.45899 13.0947C8.45899 13.0947 8.35527 12.9219 8.57527 12.9564C8.79527 12.991 9.59356 13.3037 10.0336 13.3155C10.4736 13.3265 10.7046 13.0955 10.7855 13.0719C10.8664 13.0484 11.341 12.8637 11.4801 12.8409C11.6191 12.8174 12.4756 12.2933 12.6028 11.0338C12.7301 9.77352 11.5956 9.03338 10.9473 9.02159C10.9473 9.02159 10.5427 9.00981 10.45 9.06795C10.3573 9.12609 9.75542 9.40345 9.48984 9.43802C9.48984 9.43802 9.26984 9.64702 9.30442 9.90159C9.33899 10.1562 9.33899 11.0322 10.2646 11.0338C10.2646 11.0338 10.4861 10.9144 10.4626 10.0493C10.4626 10.0493 11.6144 9.95345 11.6443 11.0338C11.6749 12.1142 10.6118 12.2642 9.95342 12.2344C9.29499 12.2045 7.9027 11.2915 8.00799 9.83952L8.08892 9.32252L8.3207 9.05616C8.3207 9.05616 8.85263 7.97974 10.0681 7.65602C10.0681 7.65602 10.1718 7.48238 10.2999 7.48238C10.4272 7.48238 10.5309 7.62145 10.7163 7.64424C10.901 7.66781 10.9709 7.47138 11.1446 7.48238C11.3174 7.49338 11.3292 7.62145 11.5146 7.65524C11.7001 7.69059 12.6028 7.79431 13.332 8.78981C13.332 8.78981 13.3666 9.04438 13.4703 9.09074C13.5748 9.13788 13.8176 9.24159 13.8529 9.32252C13.8875 9.40345 14.1303 10.2717 14.1075 10.6417C14.0839 11.0118 13.9802 12.7364 12.8346 13.2692L12.8111 13.5811C12.8111 13.5811 11.9546 14.3456 10.6464 14.2529C9.33899 14.1602 8.98699 14.0227 8.67899 13.6047Z" fill="#39CCFF"/>
</g>
</svg>
