<svg width="160" height="51" viewBox="0 0 160 51" fill="none" xmlns="http://www.w3.org/2000/svg">
<path fill-rule="evenodd" clip-rule="evenodd" d="M74.1747 19.1393L73.7864 20.9045L73.2921 23.2699H75.8341L77.7405 14.6909H74.9867L70.2206 20.6927L68.7025 14.6909H65.9488L63.2303 23.2699H65.8076L66.549 20.9045L67.1138 19.1393L67.2904 19.8454L67.7493 21.6812H67.7846L68.173 23.2699H70.8914L72.1624 21.6812H72.1977L73.6452 19.8454L74.1747 19.1393Z" fill="white"/>
<path fill-rule="evenodd" clip-rule="evenodd" d="M158.694 14.6909L157.529 19.104H150.044L146.443 32.555H141.112L144.713 19.104H137.264L138.429 14.6909H158.694Z" fill="#F5333F"/>
<path fill-rule="evenodd" clip-rule="evenodd" d="M119.894 19.104C119.647 20.0925 119.47 20.6574 119.223 21.6459H131.121L130.097 25.4588C125.79 25.4588 122.507 25.4588 118.199 25.4588C117.882 26.6592 117.776 26.9769 117.458 28.1773C122.966 28.1773 127.661 28.1773 133.204 28.1773L132.039 32.5903C125.719 32.5903 120.071 32.5903 113.928 32.5903C112.304 32.5903 111.35 31.2488 111.774 29.6248C112.833 25.6353 113.928 21.6459 114.987 17.6212C115.41 15.9972 117.105 14.6556 118.729 14.6556C124.872 14.6556 130.556 14.6556 136.84 14.6556L135.64 19.0687C130.132 19.104 125.437 19.104 119.894 19.104Z" fill="#F5333F"/>
<path fill-rule="evenodd" clip-rule="evenodd" d="M81.5535 16.8092C81.4122 17.2681 81.3416 17.5506 81.2357 18.0095H86.9551L86.4608 19.8454C84.3778 19.8454 82.8244 19.8454 80.7415 19.8454C80.6002 20.4103 80.5296 20.5868 80.3884 21.1516C83.0363 21.1516 85.2957 21.1516 87.9436 21.1516L87.3787 23.2699C84.3425 23.2699 81.6241 23.2699 78.6585 23.2699C77.8818 23.2699 77.4228 22.6344 77.6347 21.8577C78.1642 19.9513 78.6585 18.0095 79.1881 16.1031C79.3999 15.3264 80.2119 14.6909 80.9886 14.6909C83.9542 14.6909 86.6726 14.6909 89.7088 14.6909L89.1439 16.8092C86.4608 16.8092 84.2013 16.8092 81.5535 16.8092Z" fill="white"/>
<path fill-rule="evenodd" clip-rule="evenodd" d="M44.166 16.8092C43.8835 17.8683 43.5305 19.1746 43.0009 21.1517H48.0847L48.3319 20.2338C45.7193 20.2338 48.4025 20.2338 45.7547 20.2338L46.2842 18.3273C49.3557 18.3273 46.5314 18.3273 49.6028 18.3273C50.3442 18.3273 50.8032 18.9275 50.5914 19.6689L50.203 21.1517L49.9912 21.8931C49.7794 22.6345 49.038 23.2346 48.2613 23.2346H41.2004C40.459 23.2346 40 22.6345 40.2118 21.8931L41.8006 15.9972C42.0124 15.2558 42.7891 14.6556 43.5305 14.6556H51.6858L51.1209 16.7739C48.6849 16.8092 46.5667 16.8092 44.166 16.8092Z" fill="white"/>
<path fill-rule="evenodd" clip-rule="evenodd" d="M87.4845 31.6724V31.7077V31.743V31.7783V31.8136V31.8489V31.8843V31.9196V31.9549V31.9902V32.0255V32.0608V32.0961V32.1314V32.1667V32.202V32.2373V32.2726V32.3079V32.3432V32.3785V32.4138V32.4491V32.4844V32.4491V32.4138V32.3785V32.3432V32.2726V32.202L87.5198 32.1314V32.0961V32.0608L87.5551 31.9902L87.5904 31.8843L87.4845 31.6724ZM94.7573 25.5294H105.419L104.572 28.7068C101.006 28.7068 97.4404 28.7422 93.8746 28.7422L94.0512 28.0361L94.7573 25.5294ZM96.4872 19.104H107.149L106.443 21.7166H95.7811L96.4872 19.104ZM106.372 32.5903C107.926 32.5903 109.515 31.3194 109.938 29.766C110.397 28.0714 110.362 28.142 110.821 26.4827C111.244 24.9293 110.327 23.6583 108.773 23.6583C110.327 23.6583 111.915 22.3873 112.339 20.8339C112.798 19.1393 112.763 19.2099 113.222 17.5506C113.645 15.9972 112.727 14.7263 111.139 14.7263C104.784 14.7263 98.3936 14.7263 92.0388 14.7263L91.2974 17.4447L90.8385 19.1393L89.391 24.5409L88.4378 28.0361L87.4845 31.5312V31.5665L87.4492 31.6724V31.7077V31.743V31.7783V31.8136V31.8489V31.9196V31.9549L87.4139 32.0255L87.3786 32.0961V32.1314V32.1667L87.3433 32.2373V32.2726L87.308 32.3785L87.2727 32.4844H106.372V32.5903Z" fill="#F5333F"/>
<path fill-rule="evenodd" clip-rule="evenodd" d="M58.6761 20.0572L57.97 17.2682L55.7811 20.0572H58.6761ZM62.2419 23.2699H59.4881L59.1351 21.8931H54.3337L53.2392 23.2699H50.4855L57.3345 14.6556H60.053L62.2419 23.2699Z" fill="white"/>
<path fill-rule="evenodd" clip-rule="evenodd" d="M60.7591 27.1887C60.1942 29.3776 60.406 28.5303 59.7705 30.8251C61.3239 30.8251 62.842 30.8251 64.3954 30.8251C64.9956 28.5303 64.7838 29.3776 65.3839 27.1887C63.8305 27.1887 62.3125 27.1887 60.7591 27.1887ZM58.3583 32.5903C57.7229 32.5903 57.3345 32.0607 57.4757 31.4253C57.8994 29.8366 58.323 28.2126 58.7467 26.6239C58.9232 25.9884 59.594 25.4588 60.2295 25.4588C62.4184 25.4588 64.5719 25.4588 66.7608 25.4588C67.3963 25.4588 67.7847 25.9884 67.6434 26.6239C67.2198 28.2126 66.7961 29.8366 66.3725 31.4253C66.1959 32.0607 65.5252 32.5903 64.8897 32.5903C62.7008 32.5903 60.5472 32.5903 58.3583 32.5903Z" fill="white"/>
<path fill-rule="evenodd" clip-rule="evenodd" d="M55.7811 29.9425C56.4166 29.9425 57.0521 29.4482 57.2286 28.8127C57.4051 28.1419 57.6522 27.224 57.8288 26.5179C58.0053 25.8824 57.6169 25.3882 57.0168 25.3882C54.4748 25.3882 51.8976 25.3882 49.3557 25.3882L48.8967 27.1534C51.0856 27.1534 53.2392 27.1534 55.4281 27.1534L55.1456 28.1419C53.3451 28.1419 51.5446 28.1419 49.744 28.1419C49.1086 28.1419 48.4731 28.6362 48.2966 29.2717C48.0141 30.3661 47.6964 31.4606 47.4139 32.555C48.1553 32.555 48.932 32.555 49.6734 32.555C49.9206 31.6018 50.1324 30.8957 50.3795 29.9425H55.7811Z" fill="white"/>
<path fill-rule="evenodd" clip-rule="evenodd" d="M73.857 32.5903H76.1165L75.3398 29.7306H75.7635C76.3989 29.7306 77.0344 29.2364 77.2109 28.6009C77.3875 27.9301 77.564 27.2593 77.7405 26.5885C77.917 25.9531 77.5287 25.4588 76.9285 25.4588C74.3866 25.4588 71.8094 25.4588 69.2674 25.4588L68.8085 27.224C70.9974 27.224 73.1509 27.224 75.3398 27.224L75.0574 28.2126C73.2568 28.2126 71.4563 28.2479 69.6558 28.2479C69.0203 28.2479 68.3848 28.7421 68.2083 29.3776C67.9259 30.472 67.6434 31.5312 67.3257 32.6256H69.5852C69.8323 31.6724 70.0794 30.7192 70.3619 29.766C71.2798 29.766 72.1624 29.766 73.0803 29.766L73.857 32.5903Z" fill="white"/>
<path fill-rule="evenodd" clip-rule="evenodd" d="M46.249 28.036C46.8845 28.036 47.2375 28.5303 47.061 29.1658C46.8845 29.8366 46.6373 30.7545 46.4608 31.4606C46.2843 32.0961 45.6488 32.5903 45.0133 32.5903C42.4714 32.5903 40.1413 32.5903 37.5641 32.5903L38.023 30.8251C40.2119 30.8251 42.1537 30.8251 44.3425 30.8251L44.625 29.8366C42.8245 29.8366 41.0239 29.8366 39.2234 29.8366C38.5879 29.8366 38.2349 29.3423 38.4114 28.7068C38.5879 28.0007 38.7997 27.2593 38.9763 26.5532C39.1528 25.9531 39.753 25.4588 40.3884 25.4588C42.9657 25.4588 45.2252 25.4588 47.8024 25.4588L47.3434 27.224H41.0945L40.8827 28.0713H46.249V28.036Z" fill="white"/>
<path fill-rule="evenodd" clip-rule="evenodd" d="M86.8138 25.4235L86.3195 27.1887H83.3539L81.9064 32.5903H79.7529L81.2003 27.1887H78.1995L78.6937 25.4235H86.8138Z" fill="white"/>
<path d="M0.0351279 40.4814C-0.10609 41.1875 0.176346 42.4938 1.3767 42.8115C1.412 42.8115 1.44731 42.8468 1.51792 42.8468C3.07131 43.1646 4.37758 42.176 5.01306 41.823C8.11986 39.9518 9.53204 38.8221 10.8383 38.3631C12.5682 37.7277 14.3688 37.9748 15.5691 38.2219C16.7342 38.575 18.4288 39.2811 19.5938 40.6932C20.4764 41.7524 21.1472 43.447 22.9124 46.6244C23.2655 47.2599 23.901 48.7427 25.4191 49.2369C25.4544 49.2369 25.4897 49.2722 25.5603 49.2722C26.7959 49.59 27.6786 48.6014 27.8904 47.9307C28.2434 46.8362 29.9733 37.8689 29.7968 35.6447C29.6909 34.2325 28.9848 32.5379 27.5373 31.4435C27.8198 29.0428 27.3961 27.3128 26.7606 25.1593C27.8551 24.1001 28.7024 22.7586 29.126 21.1698C29.6909 19.1222 29.4438 17.0392 28.5965 15.2387C28.8083 7.68353 25.4897 1.1875 25.4897 1.1875C25.4897 1.1875 19.4173 5.1063 15.8162 11.7789C14.1922 12.9086 12.9213 14.6032 12.3564 16.6509C11.9327 18.2396 11.968 19.8636 12.3917 21.3111C10.7677 22.8645 9.53204 24.1354 8.57882 26.3243C6.77829 26.5361 5.3308 27.6659 4.5188 28.8309C3.24784 30.7021 0.282259 39.3164 0.0351279 40.4814ZM21.5709 30.2784C20.2999 30.2078 19.0289 30.0666 17.8286 29.7135C16.5929 29.3958 15.4279 28.8662 14.2981 28.3014C14.1922 27.1716 14.1922 25.936 14.2628 24.6297C15.3573 25.8653 16.8048 26.7833 18.4994 27.2422C20.2293 27.7012 21.9592 27.6306 23.5126 27.101C22.8771 28.3014 22.2417 29.3605 21.5709 30.2784ZM18.4288 10.5785C19.2055 9.44875 20.0175 8.38962 20.8295 7.4717L26.3723 8.95449C26.6194 10.1548 26.7959 11.4611 26.9019 12.838C25.8427 11.7789 24.5365 10.9668 22.9831 10.5432C21.4297 10.1548 19.8763 10.1901 18.4288 10.5785ZM22.5594 12.0966C26.337 13.1204 28.5612 17.0039 27.5373 20.7462C26.5135 24.5238 22.63 26.748 18.8877 25.7241C15.1101 24.7003 12.886 20.8168 13.9098 17.0745C14.8983 13.3322 18.7818 11.1081 22.5594 12.0966ZM25.7015 35.9624C26.2664 36.1037 26.5841 36.7038 26.4429 37.2687C26.3017 37.8336 25.7015 38.1513 25.1366 38.0101C24.5718 37.8689 24.254 37.2687 24.3952 36.7038C24.5718 36.139 25.1366 35.8212 25.7015 35.9624ZM23.9716 32.9263C24.5365 33.0675 24.8542 33.6676 24.713 34.2325C24.5718 34.7974 23.9716 35.1151 23.4067 34.9739C22.8418 34.8327 22.5241 34.2325 22.6653 33.6676C22.8065 33.1381 23.4067 32.785 23.9716 32.9263ZM22.6653 37.6924C23.2302 37.8336 23.5479 38.4338 23.4067 38.9986C23.2655 39.5635 22.6653 39.8812 22.1004 39.74C21.5356 39.5988 21.2178 38.9986 21.359 38.4338C21.5356 37.8689 22.1357 37.5511 22.6653 37.6924ZM20.9354 34.6915C21.5003 34.8327 21.818 35.4329 21.6768 35.9977C21.5356 36.5626 20.9354 36.8804 20.3705 36.7391C19.8056 36.5979 19.4879 35.9977 19.6291 35.4329C19.8056 34.868 20.3705 34.515 20.9354 34.6915ZM6.67237 31.4435C6.74298 31.1963 7.02542 31.0198 7.27255 31.0904L8.93186 31.5141L9.35552 29.8548C9.42612 29.6076 9.70856 29.4311 9.95569 29.5017L10.9089 29.7488C11.156 29.8195 11.3326 30.1019 11.262 30.349L10.8383 32.0083L12.4976 32.432C12.7447 32.5026 12.9213 32.785 12.8507 33.0322L12.5682 34.0207C12.4976 34.2678 12.2152 34.4443 11.968 34.3737L10.3087 33.9501L9.88508 35.5741C9.81447 35.8212 9.53204 35.9977 9.28491 35.9271L8.33169 35.68C8.08455 35.6094 7.90803 35.327 7.97864 35.0798L8.40229 33.4205L6.74298 32.9969C6.49585 32.9262 6.31933 32.6438 6.38994 32.3967L6.67237 31.4435Z" fill="#F5333F"/>
<path d="M16.8402 41.0816C16.4872 42.4585 14.8279 43.4823 13.8747 44.4708C13.5569 43.1293 12.639 41.3993 12.9921 40.0578C13.0274 39.8812 13.1333 39.7047 13.2392 39.5282C12.3919 39.8812 11.7211 40.6226 11.474 41.5406C10.8385 43.8707 12.18 46.7303 12.639 48.9898C14.1571 47.2599 16.7696 45.4947 17.4051 43.1646C17.6522 42.2113 17.4404 41.2581 16.9109 40.5167C16.9109 40.6932 16.8755 40.9051 16.8402 41.0816Z" fill="white"/>
<path d="M21.7477 15.1681C23.8306 15.733 25.0663 17.8512 24.5014 19.9342C23.9366 22.0172 21.8183 23.2528 19.7353 22.688C17.6524 22.1231 16.4167 20.0048 16.9816 17.9218C17.5111 15.8389 19.6647 14.6032 21.7477 15.1681Z" fill="white"/>
<path d="M42.762 36.4838L41.8567 40.8971H40.8382L41.5738 37.3325H40.0461L39.8198 38.4076C39.6501 39.0865 39.4803 39.5957 39.3671 39.9352C39.1974 40.2747 39.0277 40.5576 38.8013 40.7273C38.575 40.8971 38.3487 40.9537 38.0092 40.9537C37.8395 40.9537 37.6697 40.9537 37.5 40.8971L37.7263 40.0484C37.7829 40.0484 37.8395 40.0484 37.8961 40.0484C38.0658 40.0484 38.179 39.9918 38.2921 39.8786C38.4053 39.7655 38.5184 39.5957 38.6316 39.3128C38.7448 39.0299 38.8579 38.6905 38.9145 38.2378L39.3671 36.4272H42.762V36.4838Z" fill="white"/>
<path d="M46.3265 39.9352H44.2896L43.7238 40.8971H42.6488L45.4778 36.4838H46.4962L47.5713 40.8971H46.5528L46.3265 39.9352ZM46.1568 39.1431L45.7607 37.4457L44.7423 39.1431H46.1568Z" fill="white"/>
<path d="M49.2122 36.4838H52.7767L52.607 37.2759H50.0609L49.8911 38.1812H51.1359C51.5885 38.1812 51.928 38.2944 52.1543 38.4641C52.3807 38.6905 52.4938 38.9734 52.4938 39.3128C52.4938 39.6523 52.4373 39.8786 52.2675 40.105C52.0978 40.3313 51.8714 40.501 51.532 40.6142C51.1925 40.7273 50.853 40.7839 50.4003 40.7839H48.3069L49.2122 36.4838ZM50.5135 40.105C50.7964 40.105 51.0227 40.0484 51.1925 39.9352C51.3622 39.8221 51.4188 39.6523 51.4188 39.426C51.4188 39.2563 51.3622 39.1431 51.2491 39.0299C51.1359 38.9734 50.9662 38.9168 50.7398 38.9168H49.7214L49.4951 40.105H50.5135Z" fill="white"/>
<path d="M54.2477 40.7274C53.9082 40.5576 53.6819 40.3313 53.5121 40.0484C53.3424 39.7655 53.2292 39.426 53.2292 39.0299C53.2292 38.5207 53.3424 38.0681 53.5687 37.672C53.7951 37.276 54.1345 36.9365 54.5306 36.7101C54.9267 36.4838 55.4359 36.3707 55.9451 36.3707C56.3978 36.3707 56.7938 36.4272 57.0767 36.597C57.3596 36.7667 57.6425 36.9931 57.8122 37.276C57.982 37.5589 58.0951 37.8983 58.0951 38.2944C58.0951 38.8036 57.982 39.2563 57.7557 39.6523C57.5293 40.0484 57.1899 40.3879 56.7938 40.6142C56.3978 40.8405 55.8885 40.9537 55.3793 40.9537C54.9267 40.9537 54.5872 40.8405 54.2477 40.7274ZM56.3412 39.8221C56.5675 39.6523 56.7938 39.4826 56.907 39.1997C57.0201 38.9168 57.0767 38.6339 57.0767 38.351C57.0767 38.0115 56.9635 37.7286 56.7372 37.5589C56.5109 37.3325 56.228 37.276 55.8319 37.276C55.4925 37.276 55.2096 37.3325 54.9832 37.5023C54.7569 37.672 54.5306 37.8418 54.4174 38.1247C54.3043 38.4076 54.2477 38.6905 54.2477 38.9734C54.2477 39.3128 54.3608 39.5957 54.5872 39.7655C54.8135 39.9918 55.0964 40.0484 55.4925 40.0484C55.7754 40.105 56.0583 39.9918 56.3412 39.8221Z" fill="white"/>
<path d="M62.5085 36.8233C62.7914 37.0496 62.9612 37.3891 62.9612 37.8418C62.9612 38.2378 62.848 38.5207 62.6783 38.8036C62.5085 39.0865 62.2822 39.3128 61.9427 39.426C61.6032 39.5392 61.2638 39.6523 60.8111 39.6523H59.8493L59.6229 40.8405H58.6045L59.5098 36.4272H61.2638C61.773 36.4838 62.2256 36.597 62.5085 36.8233ZM61.6598 38.5773C61.8296 38.4076 61.9427 38.1812 61.9427 37.8983C61.9427 37.672 61.8861 37.5589 61.7164 37.4457C61.6032 37.3325 61.3769 37.276 61.094 37.276H60.3019L60.019 38.8036H60.8677C61.2072 38.8036 61.4901 38.747 61.6598 38.5773Z" fill="white"/>
<path d="M66.2994 39.9352H64.2625L63.6967 40.8971H62.6217L65.4507 36.4838H66.4692L67.5442 40.8971H66.5257L66.2994 39.9352ZM66.1297 39.1431L65.7336 37.4457L64.7152 39.1431H66.1297Z" fill="white"/>
<path d="M72.1271 37.276H70.7126L70.0337 40.8405H69.0152L69.6942 37.276H68.2797L68.4494 36.4272H72.2403L72.1271 37.276Z" fill="white"/>
<path d="M73.2587 40.7274C72.9192 40.5576 72.6929 40.3313 72.5231 40.0484C72.3534 39.7655 72.2402 39.426 72.2402 39.0299C72.2402 38.5207 72.3534 38.0681 72.5797 37.672C72.806 37.276 73.1455 36.9365 73.5416 36.7101C73.9376 36.4838 74.4469 36.3707 74.9561 36.3707C75.4087 36.3707 75.8048 36.4272 76.0877 36.597C76.3706 36.7667 76.6535 36.9931 76.8232 37.276C76.993 37.5589 77.1061 37.8983 77.1061 38.2944C77.1061 38.8036 76.993 39.2563 76.7667 39.6523C76.5403 40.0484 76.2008 40.3879 75.8048 40.6142C75.4087 40.8405 74.8995 40.9537 74.3903 40.9537C73.9376 40.9537 73.5982 40.8405 73.2587 40.7274ZM75.3521 39.8221C75.5785 39.6523 75.8048 39.4826 75.918 39.1997C76.0311 38.9168 76.0877 38.6339 76.0877 38.351C76.0877 38.0115 75.9745 37.7286 75.7482 37.5589C75.5219 37.3325 75.239 37.276 74.8429 37.276C74.5034 37.276 74.2205 37.3325 73.9942 37.5023C73.7679 37.672 73.5416 37.8418 73.4284 38.1247C73.3153 38.4076 73.2587 38.6905 73.2587 38.9734C73.2587 39.3128 73.3718 39.5957 73.5982 39.7655C73.8245 39.9918 74.1074 40.0484 74.5034 40.0484C74.7863 40.105 75.0692 39.9918 75.3521 39.8221Z" fill="white"/>
<path d="M81.5195 36.8233C81.8024 37.0496 81.9722 37.3891 81.9722 37.8418C81.9722 38.2378 81.859 38.5207 81.6893 38.8036C81.5195 39.0865 81.2932 39.3128 80.9537 39.426C80.6142 39.5392 80.2748 39.6523 79.8221 39.6523H78.8603L78.6339 40.8405H77.6155L78.5208 36.4272H80.2748C80.784 36.4838 81.2366 36.597 81.5195 36.8233ZM80.6708 38.5773C80.8406 38.4076 80.9537 38.1812 80.9537 37.8983C80.9537 37.672 80.8972 37.5589 80.7274 37.4457C80.6142 37.3325 80.3879 37.276 80.105 37.276H79.3129L79.03 38.8036H79.8787C80.2182 38.8036 80.5011 38.747 80.6708 38.5773Z" fill="white"/>
<path d="M83.2169 36.4838H84.2354L83.6696 39.3694L86.3289 36.4838H87.2907L86.3854 40.8971H85.367L85.9328 38.0115L83.2735 40.8971H82.3116L83.2169 36.4838Z" fill="white"/>
<path d="M92.0434 36.4838L91.1947 40.8971H90.1763L90.4026 39.7089H89.4973L88.4789 40.8971H87.3473L88.5355 39.5392C88.3091 39.426 88.1394 39.2563 88.0262 39.0865C87.9131 38.9168 87.8565 38.6339 87.8565 38.4076C87.8565 38.0115 87.9697 37.672 88.1394 37.3891C88.3092 37.1062 88.5921 36.8799 88.9315 36.7101C89.271 36.5404 89.6671 36.4838 90.1197 36.4838H92.0434ZM89.2144 37.5589C89.0447 37.7286 88.9315 37.9549 88.9315 38.2378C88.9315 38.4641 88.9881 38.5773 89.1013 38.6905C89.2144 38.8036 89.3842 38.8602 89.6671 38.8602H90.5724L90.9118 37.2759H90.0631C89.6671 37.2759 89.3842 37.3891 89.2144 37.5589Z" fill="white"/>
<path d="M98.437 37.2759H97.0225L96.287 40.8971H95.2686L95.9475 37.3325H94.5896L94.7593 36.4838H98.5502L98.437 37.2759Z" fill="white"/>
<path d="M102.624 38.9168C102.737 39.0865 102.794 39.2563 102.794 39.4826C102.794 39.9352 102.624 40.2747 102.228 40.501C101.888 40.7274 101.379 40.8405 100.813 40.8405H98.4935L99.3988 36.4272H101.549C102.002 36.4272 102.398 36.5404 102.624 36.7101C102.907 36.8799 103.02 37.1062 103.02 37.4457C103.02 37.7286 102.963 37.9549 102.794 38.1247C102.624 38.2944 102.454 38.4641 102.228 38.5773C102.398 38.6905 102.511 38.8036 102.624 38.9168ZM101.549 39.9352C101.719 39.8221 101.775 39.6523 101.775 39.4826C101.775 39.1997 101.549 39.0299 101.096 39.0299H99.8515L99.6251 40.105H100.813C101.153 40.105 101.379 40.0484 101.549 39.9352ZM100.248 37.2194L100.021 38.2378H101.04C101.323 38.2378 101.492 38.1812 101.662 38.0681C101.832 37.9549 101.888 37.7852 101.888 37.6154C101.888 37.3325 101.662 37.2194 101.266 37.2194H100.248Z" fill="white"/>
<path d="M104.604 40.7274C104.265 40.5576 104.038 40.3313 103.869 40.0484C103.699 39.7655 103.586 39.426 103.586 39.0299C103.586 38.5207 103.699 38.0681 103.925 37.672C104.152 37.276 104.491 36.9365 104.887 36.7101C105.283 36.4838 105.792 36.3707 106.302 36.3707C106.754 36.3707 107.15 36.4272 107.433 36.597C107.716 36.7667 107.999 36.9931 108.169 37.276C108.339 37.5589 108.452 37.8983 108.452 38.2944C108.452 38.8036 108.339 39.2563 108.112 39.6523C107.886 40.0484 107.546 40.3879 107.15 40.6142C106.754 40.8405 106.245 40.9537 105.736 40.9537C105.283 40.9537 104.944 40.8405 104.604 40.7274ZM106.698 39.8221C106.924 39.6523 107.15 39.4826 107.264 39.1997C107.377 38.9168 107.433 38.6339 107.433 38.351C107.433 38.0115 107.32 37.7286 107.094 37.5589C106.867 37.3325 106.585 37.276 106.189 37.276C105.849 37.276 105.566 37.3325 105.34 37.5023C105.113 37.672 104.887 37.8418 104.774 38.1247C104.661 38.4076 104.604 38.6905 104.604 38.9734C104.604 39.3128 104.717 39.5957 104.944 39.7655C105.17 39.9918 105.453 40.0484 105.849 40.0484C106.132 40.105 106.415 39.9918 106.698 39.8221Z" fill="white"/>
<path d="M109.866 36.4838H110.885L110.319 39.3694L112.978 36.4838H113.94L113.035 40.8971H112.016L112.582 38.0115L109.923 40.8971H108.961L109.866 36.4838Z" fill="white"/>
<path d="M115.92 36.4838L116.543 37.8418L117.731 36.4838H118.919L117.052 38.5773L118.184 40.8971H116.995L116.26 39.426L114.958 40.8971H113.77L115.807 38.6339L114.789 36.4838H115.92Z" fill="white"/>
<path d="M125.765 36.4838L124.86 40.8971H123.842L124.52 37.3325H122.54L121.861 40.8971H120.843L121.748 36.4838H125.765Z" fill="white"/>
<path d="M127.293 40.7274C126.953 40.5576 126.727 40.3313 126.557 40.0484C126.388 39.7655 126.275 39.426 126.275 39.0299C126.275 38.5207 126.388 38.0681 126.614 37.672C126.84 37.276 127.18 36.9365 127.576 36.7101C127.972 36.4838 128.481 36.3707 128.99 36.3707C129.443 36.3707 129.839 36.4272 130.122 36.597C130.405 36.7667 130.688 36.9931 130.858 37.276C131.027 37.5589 131.14 37.8983 131.14 38.2944C131.14 38.8036 131.027 39.2563 130.801 39.6523C130.575 40.0484 130.235 40.3879 129.839 40.6142C129.443 40.8405 128.934 40.9537 128.425 40.9537C127.972 40.9537 127.576 40.8405 127.293 40.7274ZM129.386 39.8221C129.613 39.6523 129.839 39.4826 129.952 39.1997C130.065 38.9168 130.122 38.6339 130.122 38.351C130.122 38.0115 130.009 37.7286 129.783 37.5589C129.556 37.3325 129.273 37.276 128.877 37.276C128.538 37.276 128.255 37.3325 128.029 37.5023C127.802 37.672 127.576 37.8418 127.463 38.1247C127.35 38.4076 127.293 38.6905 127.293 38.9734C127.293 39.3128 127.406 39.5957 127.632 39.7655C127.859 39.9918 128.142 40.0484 128.538 40.0484C128.821 40.105 129.104 39.9918 129.386 39.8221Z" fill="white"/>
<path d="M132.555 36.4838H136.12L135.95 37.2759H133.404L133.234 38.1812H134.479C134.931 38.1812 135.271 38.2944 135.497 38.4641C135.723 38.6905 135.837 38.9734 135.837 39.3128C135.837 39.6523 135.78 39.8786 135.61 40.105C135.441 40.3313 135.214 40.501 134.875 40.6142C134.535 40.7273 134.196 40.7839 133.743 40.7839H131.65L132.555 36.4838ZM133.8 40.105C134.083 40.105 134.309 40.0484 134.479 39.9352C134.648 39.8221 134.705 39.6523 134.705 39.426C134.705 39.2563 134.648 39.1431 134.535 39.0299C134.422 38.9734 134.252 38.9168 134.026 38.9168H133.064L132.838 40.105H133.8Z" fill="white"/>
<path d="M138.156 37.2759L137.987 38.2378H140.024L139.854 39.0299H137.817L137.591 40.0484H139.967L139.854 40.8971H136.459L137.364 36.4838H140.703L140.533 37.2759H138.156Z" fill="white"/>
<path d="M144.946 40.0484H145.568L145.229 41.8024H144.267L144.437 40.8971H141.325L141.155 41.8024H140.193L140.533 40.0484H140.646C140.929 40.0484 141.155 39.8221 141.325 39.426C141.551 39.0299 141.721 38.4641 141.891 37.7852L142.23 36.4272H145.625L144.946 40.0484ZM142.457 39.2563C142.343 39.5957 142.174 39.8221 142.004 39.9918H143.928L144.493 37.276H142.966L142.796 37.9549C142.683 38.5207 142.57 38.9168 142.457 39.2563Z" fill="white"/>
</svg>
